<svg xmlns="http://www.w3.org/2000/svg" xmlns:xlink="http://www.w3.org/1999/xlink" width="61.849mm" height="55.626mm" viewBox="4057.5 3034 243.5 219"><title></title><style type="text/css">
*[layerid="1"] {stroke:#000000;fill:#000000;}
*[layerid="2"] {stroke:#000000;fill:#000000;}
*[layerid="3"] {stroke:#000000;fill:#000000;}
*[layerid="4"] {stroke:#000000;fill:#000000;}
*[layerid="5"] {stroke:#000000;fill:#000000;}
*[layerid="6"] {stroke:#000000;fill:#000000;}
*[layerid="7"] {stroke:#000000;fill:#000000;}
*[layerid="8"] {stroke:#000000;fill:#000000;}
*[layerid="9"] {stroke:#000000;fill:#000000;}
*[layerid="10"] {stroke:#000000;fill:#000000;}
*[layerid="11"] {stroke:#000000;fill:#000000;}
*[layerid="12"] {stroke:#000000;fill:#000000;}
*[layerid="13"] {stroke:#000000;fill:#000000;}
*[layerid="14"] {stroke:#000000;fill:#000000;}
*[layerid="15"] {stroke:#000000;fill:#000000;}
*[layerid="19"] {stroke:#000000;fill:#000000;}
*[layerid="21"] {stroke:#000000;fill:#000000;}
*[layerid="22"] {stroke:#000000;fill:#000000;}
*[layerid="23"] {stroke:#000000;fill:#000000;}
*[layerid="24"] {stroke:#000000;fill:#000000;}
*[layerid="25"] {stroke:#000000;fill:#000000;}
*[layerid="26"] {stroke:#000000;fill:#000000;}
*[layerid="27"] {stroke:#000000;fill:#000000;}
*[layerid="28"] {stroke:#000000;fill:#000000;}
*[layerid="29"] {stroke:#000000;fill:#000000;}
*[layerid="30"] {stroke:#000000;fill:#000000;}
*[layerid="31"] {stroke:#000000;fill:#000000;}
*[layerid="32"] {stroke:#000000;fill:#000000;}
*[layerid="33"] {stroke:#000000;fill:#000000;}
*[layerid="34"] {stroke:#000000;fill:#000000;}
*[layerid="35"] {stroke:#000000;fill:#000000;}
*[layerid="36"] {stroke:#000000;fill:#000000;}
*[layerid="37"] {stroke:#000000;fill:#000000;}
*[layerid="38"] {stroke:#000000;fill:#000000;}
*[layerid="39"] {stroke:#000000;fill:#000000;}
*[layerid="40"] {stroke:#000000;fill:#000000;}
*[layerid="41"] {stroke:#000000;fill:#000000;}
*[layerid="42"] {stroke:#000000;fill:#000000;}
*[layerid="43"] {stroke:#000000;fill:#000000;}
*[layerid="44"] {stroke:#000000;fill:#000000;}
*[layerid="45"] {stroke:#000000;fill:#000000;}
*[layerid="46"] {stroke:#000000;fill:#000000;}
*[layerid="47"] {stroke:#000000;fill:#000000;}
*[layerid="48"] {stroke:#000000;fill:#000000;}
*[layerid="49"] {stroke:#000000;fill:#000000;}
*[layerid="50"] {stroke:#000000;fill:#000000;}
*[layerid="51"] {stroke:#000000;fill:#000000;}
*[layerid="52"] {stroke:#000000;fill:#000000;}
*[layerid="99"] {stroke:#000000;fill:#000000;}
*[layerid="100"] {stroke:#000000;fill:#000000;}
*[layerid="101"] {stroke:#000000;fill:#000000;}
*[layerid="Hole"] {stroke:#000000;fill:#000000;}
*[layerid="DRCError"] {stroke:#000000;fill:#000000;}
*[fill="none"] {fill: none;}
*[stroke="none"] {stroke: none;}
path, polyline, polygon, line {stroke-linecap:round;}
g[c_partid="part_pad"][layerid="1"] ellipse:not([c_etype="pad_outer"]) {fill:#000000;}
g[c_partid="part_pad"][layerid="1"] polygon:not([c_etype="pad_outer"]) {fill:#000000;}
g[c_partid="part_pad"][layerid="1"] polyline:not([c_etype="pad_outer"]) {stroke:#000000;}
g[c_partid="part_pad"][layerid="2"] ellipse:not([c_etype="pad_outer"]) {fill:#000000;}
g[c_partid="part_pad"][layerid="2"] polygon:not([c_etype="pad_outer"]) {fill:#000000;}
g[c_partid="part_pad"][layerid="2"] polyline:not([c_etype="pad_outer"]) {stroke:#000000;}
g[c_partid="part_pad"][layerid="11"] ellipse:not([c_etype="pad_outer"]) {fill:#000000;}
g[c_partid="part_pad"][layerid="11"] polygon:not([c_etype="pad_outer"]) {fill:#000000;}
g[c_partid="part_pad"][layerid="11"] polyline:not([c_etype="pad_outer"]) {stroke:#000000;}
g[c_partid="part_pad"][layerid="11"] circle {fill:#FFFFFF;}
g[c_partid="part_pad"][layerid="11"] > polyline:nth-of-type(2) {stroke:#FFFFFF;}
g[c_partid="part_pad"][layerid="11"][c_shape="ELLIPSE"]  polyline:nth-last-of-type(1) {stroke:#FFFFFF;}
g[c_partid="part_pad"][layerid="11"][c_shape="RECT"]  polyline:nth-last-of-type(1) {stroke:#FFFFFF;}
g[c_partid="part_pad"][layerid="11"][c_shape="POLYGON"]  polyline:nth-last-of-type(1) {stroke:#FFFFFF;}
g[c_partid="part_via"] > * + circle, #gCurParts g[c_partid="part_via"] > * + circle {fill:#FFFFFF;}
g[c_partid="part_pad"] > polygon[c_etype="pad_outer"], #gCurParts g[c_partid="part_pad"] > polygon[c_etype="pad_outer"] {stroke-linejoin: miter;stroke-miterlimit: 100;}
g[c_partid="part_hole"] > circle {fill: #FFFFFF;}path, polyline, polygon {stroke-linejoin:round;}
rect, circle, ellipse, polyline, line, polygon, path {shape-rendering:crispEdges;}
</style>
<rect x="4057.5" y="3034" width="243.5" height="219" fill="#FFFFFF" stroke="none"/><polyline points="4118.9 3066 4118.9 3054 4273.5 3061 4286 3072.5 4286 3176.5 4264 3177.5 4241.5 3177.5 4188.5 3142" stroke-width="1"  stroke-linecap="round" fill="none" layerid="1" net="B3_1" id="gge248" locked="0" /><polyline points="4178.5 3142 4178.5 3156 4194.5 3172 4193.5 3173 4193.5 3188.3504" stroke-width="1"  stroke-linecap="round" fill="none" layerid="1" net="U3_7" id="gge230" locked="0" /><polyline points="4168.5 3142 4168.5 3159.5 4177 3168 4176.5 3168.5 4176.5 3187.3504" stroke-width="1"  stroke-linecap="round" fill="none" layerid="1" net="U3_6" id="gge231" locked="0" /><polyline points="4158.5 3142 4158.5 3167 4161.5 3170 4161.5 3186.8504" stroke-width="1"  stroke-linecap="round" fill="none" layerid="1" net="U3_5" id="gge232" locked="0" /><polyline points="4161.5 3193.1494 4161.5 3224.215 4165.28 3227.995" stroke-width="1"  stroke-linecap="round" fill="none" layerid="1" net="LED2_1" id="gge233" locked="0" /><polyline points="4176.5 3193.6494 4176.5 3207.5 4171 3213 4171 3226.235 4172.77 3228.005" stroke-width="1"  stroke-linecap="round" fill="none" layerid="1" net="LED2_2" id="gge234" locked="0" /><polyline points="4193.5 3194.6494 4193.5 3222.215 4187.72 3227.995" stroke-width="1"  stroke-linecap="round" fill="none" layerid="1" net="LED2_4" id="gge235" locked="0" /><polyline points="4126.8 3066 4173.5 3066 4178.5 3071 4178.5 3112" stroke-width="1"  stroke-linecap="round" fill="none" layerid="1" net="U3_2" id="gge236" locked="0" /><polyline points="4111.1 3066 4111.1 3080.1 4116.5 3085.5 4164.5 3085.5 4169 3090 4169 3111.5 4168.5 3112" stroke-width="1"  stroke-linecap="round" fill="none" layerid="1" net="U3_3" id="gge238" locked="0" /><polyline points="4158.5 3112 4127 3112 4103 3088 4103.2 3087.8 4103.2 3066" stroke-width="1"  stroke-linecap="round" fill="none" layerid="1" net="B3_2" id="gge239" locked="0" /><polyline points="4188.5 3142 4220 3142 4236.5 3158.5 4241 3158.5" stroke-width="1"  stroke-linecap="round" fill="none" layerid="1" net="B3_1" id="gge240" locked="0" /><g c_partid="part_pad" c_etype="pinpart" c_origin="4103.2,3066" layerid="1" number="GND" net="B3_2" plated ="Y"  id="gge25" locked="0" c_rotation="90" c_width="17.72" c_height="5.91" title="B3_2" c_shape="RECT" pasteexpansion="0" solderexpansion="0.4"><polygon  c_etype="pad_shell" points="4100.245 3074.86 4100.245 3057.14 4106.155 3057.14 4106.155 3074.86" layerid="1" stroke-width="0" /><circle c_etype="pad_hole" cx="4103.2" cy="3066" r="0" layerid="1" stroke-width="0"/></g><g c_partid="part_pad" c_etype="pinpart" c_origin="4126.8,3066" layerid="1" number="X" net="U3_2" plated ="Y"  id="gge30" locked="0" c_rotation="90" c_width="17.72" c_height="5.91" title="U3_2" c_shape="RECT" pasteexpansion="0" solderexpansion="0.4"><polygon  c_etype="pad_shell" points="4123.845 3074.86 4123.845 3057.14 4129.755 3057.14 4129.755 3074.86" layerid="1" stroke-width="0" /><circle c_etype="pad_hole" cx="4126.8" cy="3066" r="0" layerid="1" stroke-width="0"/></g><g c_partid="part_pad" c_etype="pinpart" c_origin="4111.1,3066" layerid="1" number="Y" net="U3_3" plated ="Y"  id="gge35" locked="0" c_rotation="90" c_width="17.72" c_height="5.91" title="U3_3" c_shape="RECT" pasteexpansion="0" solderexpansion="0.4"><polygon  c_etype="pad_shell" points="4108.145 3074.86 4108.145 3057.14 4114.055 3057.14 4114.055 3074.86" layerid="1" stroke-width="0" /><circle c_etype="pad_hole" cx="4111.1" cy="3066" r="0" layerid="1" stroke-width="0"/></g><g c_partid="part_pad" c_etype="pinpart" c_origin="4118.9,3066" layerid="1" number="VCC" net="B3_1" plated ="Y"  id="gge40" locked="0" c_rotation="90" c_width="17.72" c_height="5.91" title="B3_1" c_shape="RECT" pasteexpansion="0" solderexpansion="0.4"><polygon  c_etype="pad_shell" points="4115.945 3074.86 4115.945 3057.14 4121.855 3057.14 4121.855 3074.86" layerid="1" stroke-width="0" /><circle c_etype="pad_hole" cx="4118.9" cy="3066" r="0" layerid="1" stroke-width="0"/></g><g c_partid="part_pad" c_etype="pinpart" c_origin="4161.5,3193.15" layerid="1" number="2" net="LED2_1" plated ="Y"  id="gge135" locked="0" c_rotation="270" c_width="3.937" c_height="4.3307" title="LED2_1" c_shape="RECT" pasteexpansion="0" solderexpansion="0.4"><polygon  c_etype="pad_shell" points="4163.6654 3191.1814 4163.6654 3195.1184 4159.3346 3195.1184 4159.3346 3191.1814" layerid="1" stroke-width="0" /><circle c_etype="pad_hole" cx="4161.5" cy="3193.1495" r="0" layerid="1" stroke-width="0"/></g><g c_partid="part_pad" c_etype="pinpart" c_origin="4161.5,3186.851" layerid="1" number="1" net="U3_5" plated ="Y"  id="gge140" locked="0" c_rotation="270" c_width="3.937" c_height="4.3307" title="U3_5" c_shape="RECT" pasteexpansion="0" solderexpansion="0.4"><polygon  c_etype="pad_shell" points="4163.6654 3184.8822 4163.6654 3188.8192 4159.3346 3188.8192 4159.3346 3184.8822" layerid="1" stroke-width="0" /><circle c_etype="pad_hole" cx="4161.5" cy="3186.8507" r="0" layerid="1" stroke-width="0"/></g><g c_partid="part_pad" c_etype="pinpart" c_origin="4176.5,3193.65" layerid="1" number="2" net="LED2_2" plated ="Y"  id="gge159" locked="0" c_rotation="270" c_width="3.937" c_height="4.3307" title="LED2_2" c_shape="RECT" pasteexpansion="0" solderexpansion="0.4"><polygon  c_etype="pad_shell" points="4178.6654 3191.6814 4178.6654 3195.6184 4174.3346 3195.6184 4174.3346 3191.6814" layerid="1" stroke-width="0" /><circle c_etype="pad_hole" cx="4176.5" cy="3193.6495" r="0" layerid="1" stroke-width="0"/></g><g c_partid="part_pad" c_etype="pinpart" c_origin="4176.5,3187.351" layerid="1" number="1" net="U3_6" plated ="Y"  id="gge164" locked="0" c_rotation="270" c_width="3.937" c_height="4.3307" title="U3_6" c_shape="RECT" pasteexpansion="0" solderexpansion="0.4"><polygon  c_etype="pad_shell" points="4178.6654 3185.3822 4178.6654 3189.3192 4174.3346 3189.3192 4174.3346 3185.3822" layerid="1" stroke-width="0" /><circle c_etype="pad_hole" cx="4176.5" cy="3187.3507" r="0" layerid="1" stroke-width="0"/></g><g c_partid="part_pad" c_etype="pinpart" c_origin="4193.5,3194.65" layerid="1" number="2" net="LED2_4" plated ="Y"  id="gge183" locked="0" c_rotation="270" c_width="3.937" c_height="4.3307" title="LED2_4" c_shape="RECT" pasteexpansion="0" solderexpansion="0.4"><polygon  c_etype="pad_shell" points="4195.6654 3192.6814 4195.6654 3196.6184 4191.3346 3196.6184 4191.3346 3192.6814" layerid="1" stroke-width="0" /><circle c_etype="pad_hole" cx="4193.5" cy="3194.6495" r="0" layerid="1" stroke-width="0"/></g><g c_partid="part_pad" c_etype="pinpart" c_origin="4193.5,3188.351" layerid="1" number="1" net="U3_7" plated ="Y"  id="gge188" locked="0" c_rotation="270" c_width="3.937" c_height="4.3307" title="U3_7" c_shape="RECT" pasteexpansion="0" solderexpansion="0.4"><polygon  c_etype="pad_shell" points="4195.6654 3186.3822 4195.6654 3190.3192 4191.3346 3190.3192 4191.3346 3186.3822" layerid="1" stroke-width="0" /><circle c_etype="pad_hole" cx="4193.5" cy="3188.3507" r="0" layerid="1" stroke-width="0"/></g><g c_partid="part_pad" c_etype="pinpart" c_origin="4165.28,3227.995" layerid="11" number="1" net="LED2_1" plated ="Y"  id="gge53" locked="0" c_rotation="0" c_width="6" c_height="6" title="LED2_1" c_shape="ELLIPSE" pasteexpansion="0" solderexpansion="0.4"><ellipse c_etype="pad_shell" cx="4165.28" cy="3227.995" rx="3" ry="3" layerid="11" stroke-width="0"/><circle c_etype="pad_hole" cx="4165.28" cy="3227.995" r="1.8" layerid="11" stroke-width="0"/></g><g c_partid="part_pad" c_etype="pinpart" c_origin="4172.77,3228.005" layerid="11" number="2" net="LED2_2" plated ="Y"  id="gge58" locked="0" c_rotation="0" c_width="6" c_height="6" title="LED2_2" c_shape="ELLIPSE" pasteexpansion="0" solderexpansion="0.4"><ellipse c_etype="pad_shell" cx="4172.77" cy="3228.005" rx="3" ry="3" layerid="11" stroke-width="0"/><circle c_etype="pad_hole" cx="4172.77" cy="3228.005" r="1.8" layerid="11" stroke-width="0"/></g><g c_partid="part_pad" c_etype="pinpart" c_origin="4180.24,3227.995" layerid="11" number="3" net="B3_2" plated ="Y"  id="gge63" locked="0" c_rotation="0" c_width="6" c_height="6" title="B3_2" c_shape="ELLIPSE" pasteexpansion="0" solderexpansion="0.4"><ellipse c_etype="pad_shell" cx="4180.24" cy="3227.995" rx="3" ry="3" layerid="11" stroke-width="0"/><circle c_etype="pad_hole" cx="4180.24" cy="3227.995" r="1.8" layerid="11" stroke-width="0"/></g><g c_partid="part_pad" c_etype="pinpart" c_origin="4187.72,3227.995" layerid="11" number="4" net="LED2_4" plated ="Y"  id="gge68" locked="0" c_rotation="0" c_width="6" c_height="6" title="LED2_4" c_shape="ELLIPSE" pasteexpansion="0" solderexpansion="0.4"><ellipse c_etype="pad_shell" cx="4187.72" cy="3227.995" rx="3" ry="3" layerid="11" stroke-width="0"/><circle c_etype="pad_hole" cx="4187.72" cy="3227.995" r="1.8" layerid="11" stroke-width="0"/></g><g c_partid="part_pad" c_etype="pinpart" c_origin="4188.5,3112" layerid="11" number="1" net="U3_1" plated ="Y"  id="gge81" locked="0" c_rotation="270" c_width="6" c_height="6" title="U3_1" c_shape="RECT" pasteexpansion="0" solderexpansion="0.4"><polygon  c_etype="pad_shell" points="4191.5 3109 4191.5 3115 4185.5 3115 4185.5 3109" layerid="11" stroke-width="0" /><circle c_etype="pad_hole" cx="4188.5" cy="3112" r="1.8" layerid="11" stroke-width="0"/></g><g c_partid="part_pad" c_etype="pinpart" c_origin="4178.5,3112" layerid="11" number="2" net="U3_2" plated ="Y"  id="gge86" locked="0" c_rotation="270" c_width="6" c_height="6" title="U3_2" c_shape="ELLIPSE" pasteexpansion="0" solderexpansion="0.4"><ellipse c_etype="pad_shell" cx="4178.5" cy="3112" rx="3" ry="3" layerid="11" stroke-width="0"/><circle c_etype="pad_hole" cx="4178.5" cy="3112" r="1.8" layerid="11" stroke-width="0"/></g><g c_partid="part_pad" c_etype="pinpart" c_origin="4168.5,3112" layerid="11" number="3" net="U3_3" plated ="Y"  id="gge91" locked="0" c_rotation="270" c_width="6" c_height="6" title="U3_3" c_shape="ELLIPSE" pasteexpansion="0" solderexpansion="0.4"><ellipse c_etype="pad_shell" cx="4168.5" cy="3112" rx="3" ry="3" layerid="11" stroke-width="0"/><circle c_etype="pad_hole" cx="4168.5" cy="3112" r="1.8" layerid="11" stroke-width="0"/></g><g c_partid="part_pad" c_etype="pinpart" c_origin="4158.5,3112" layerid="11" number="4" net="B3_2" plated ="Y"  id="gge96" locked="0" c_rotation="270" c_width="6" c_height="6" title="B3_2" c_shape="ELLIPSE" pasteexpansion="0" solderexpansion="0.4"><ellipse c_etype="pad_shell" cx="4158.5" cy="3112" rx="3" ry="3" layerid="11" stroke-width="0"/><circle c_etype="pad_hole" cx="4158.5" cy="3112" r="1.8" layerid="11" stroke-width="0"/></g><g c_partid="part_pad" c_etype="pinpart" c_origin="4158.5,3142" layerid="11" number="5" net="U3_5" plated ="Y"  id="gge101" locked="0" c_rotation="270" c_width="6" c_height="6" title="U3_5" c_shape="ELLIPSE" pasteexpansion="0" solderexpansion="0.4"><ellipse c_etype="pad_shell" cx="4158.5" cy="3142" rx="3" ry="3" layerid="11" stroke-width="0"/><circle c_etype="pad_hole" cx="4158.5" cy="3142" r="1.8" layerid="11" stroke-width="0"/></g><g c_partid="part_pad" c_etype="pinpart" c_origin="4168.5,3142" layerid="11" number="6" net="U3_6" plated ="Y"  id="gge106" locked="0" c_rotation="270" c_width="6" c_height="6" title="U3_6" c_shape="ELLIPSE" pasteexpansion="0" solderexpansion="0.4"><ellipse c_etype="pad_shell" cx="4168.5" cy="3142" rx="3" ry="3" layerid="11" stroke-width="0"/><circle c_etype="pad_hole" cx="4168.5" cy="3142" r="1.8" layerid="11" stroke-width="0"/></g><g c_partid="part_pad" c_etype="pinpart" c_origin="4178.5,3142" layerid="11" number="7" net="U3_7" plated ="Y"  id="gge111" locked="0" c_rotation="270" c_width="6" c_height="6" title="U3_7" c_shape="ELLIPSE" pasteexpansion="0" solderexpansion="0.4"><ellipse c_etype="pad_shell" cx="4178.5" cy="3142" rx="3" ry="3" layerid="11" stroke-width="0"/><circle c_etype="pad_hole" cx="4178.5" cy="3142" r="1.8" layerid="11" stroke-width="0"/></g><g c_partid="part_pad" c_etype="pinpart" c_origin="4188.5,3142" layerid="11" number="8" net="B3_1" plated ="Y"  id="gge116" locked="0" c_rotation="270" c_width="6" c_height="6" title="B3_1" c_shape="ELLIPSE" pasteexpansion="0" solderexpansion="0.4"><ellipse c_etype="pad_shell" cx="4188.5" cy="3142" rx="3" ry="3" layerid="11" stroke-width="0"/><circle c_etype="pad_hole" cx="4188.5" cy="3142" r="1.8" layerid="11" stroke-width="0"/></g><g c_partid="part_pad" c_etype="pinpart" c_origin="4241,3158.5" layerid="11" number="1" net="B3_1" plated ="Y"  id="gge201" locked="0" c_rotation="90" c_width="7.874" c_height="7.874" title="B3_1" c_shape="ELLIPSE" pasteexpansion="0" solderexpansion="0.4"><ellipse c_etype="pad_shell" cx="4241" cy="3158.5" rx="3.937" ry="3.937" layerid="11" stroke-width="0"/><circle c_etype="pad_hole" cx="4241" cy="3158.5" r="2.9528" layerid="11" stroke-width="0"/></g><g c_partid="part_pad" c_etype="pinpart" c_origin="4241,3076" layerid="11" number="2" net="B3_2" plated ="Y"  id="gge206" locked="0" c_rotation="90" c_width="7.874" c_height="7.874" title="B3_2" c_shape="ELLIPSE" pasteexpansion="0" solderexpansion="0.4"><ellipse c_etype="pad_shell" cx="4241" cy="3076" rx="3.937" ry="3.937" layerid="11" stroke-width="0"/><circle c_etype="pad_hole" cx="4241" cy="3076" r="2.9528" layerid="11" stroke-width="0"/></g><polyline points="4180.237 3232.326 4179.45 3233.113 4181.024 3233.113 4180.237 3232.326" stroke-width="1"  stroke-linecap="round" fill="none" layerid="3" net="S$15" id="gge52" locked="0" /><polyline points="4189.5 3130 4189.5 3130 4189.5 3137 4157.5 3137 4157.5 3117 4189.5 3117 4189.5 3124 4189.5 3124" stroke-width="1"  stroke-linecap="round" fill="none" layerid="3" net="" id="gge79" locked="0" /><polyline points="4164.6497 3183.8978 4158.3503 3183.8978" stroke-width="1"  stroke-linecap="round" fill="none" layerid="3" net="" id="gge127" locked="0" /><polyline points="4158.3704 3191.1837 4158.3704 3196.1048" stroke-width="1"  stroke-linecap="round" fill="none" layerid="3" net="" id="gge128" locked="0" /><polyline points="4164.6698 3191.1837 4164.6698 3196.1048" stroke-width="1"  stroke-linecap="round" fill="none" layerid="3" net="" id="gge129" locked="0" /><polyline points="4158.3503 3188.8192 4158.3503 3183.8978" stroke-width="1"  stroke-linecap="round" fill="none" layerid="3" net="" id="gge130" locked="0" /><polyline points="4164.6497 3188.8192 4164.6497 3183.8978" stroke-width="1"  stroke-linecap="round" fill="none" layerid="3" net="" id="gge131" locked="0" /><polyline points="4164.6698 3196.1048 4158.3704 3196.1048" stroke-width="1"  stroke-linecap="round" fill="none" layerid="3" net="" id="gge132" locked="0" /><polyline points="4179.6497 3184.3978 4173.3503 3184.3978" stroke-width="1"  stroke-linecap="round" fill="none" layerid="3" net="" id="gge151" locked="0" /><polyline points="4173.3704 3191.6837 4173.3704 3196.6048" stroke-width="1"  stroke-linecap="round" fill="none" layerid="3" net="" id="gge152" locked="0" /><polyline points="4179.6698 3191.6837 4179.6698 3196.6048" stroke-width="1"  stroke-linecap="round" fill="none" layerid="3" net="" id="gge153" locked="0" /><polyline points="4173.3503 3189.3192 4173.3503 3184.3978" stroke-width="1"  stroke-linecap="round" fill="none" layerid="3" net="" id="gge154" locked="0" /><polyline points="4179.6497 3189.3192 4179.6497 3184.3978" stroke-width="1"  stroke-linecap="round" fill="none" layerid="3" net="" id="gge155" locked="0" /><polyline points="4179.6698 3196.6048 4173.3704 3196.6048" stroke-width="1"  stroke-linecap="round" fill="none" layerid="3" net="" id="gge156" locked="0" /><polyline points="4196.6497 3185.3978 4190.3503 3185.3978" stroke-width="1"  stroke-linecap="round" fill="none" layerid="3" net="" id="gge175" locked="0" /><polyline points="4190.3704 3192.6837 4190.3704 3197.6048" stroke-width="1"  stroke-linecap="round" fill="none" layerid="3" net="" id="gge176" locked="0" /><polyline points="4196.6698 3192.6837 4196.6698 3197.6048" stroke-width="1"  stroke-linecap="round" fill="none" layerid="3" net="" id="gge177" locked="0" /><polyline points="4190.3503 3190.3192 4190.3503 3185.3978" stroke-width="1"  stroke-linecap="round" fill="none" layerid="3" net="" id="gge178" locked="0" /><polyline points="4196.6497 3190.3192 4196.6497 3185.3978" stroke-width="1"  stroke-linecap="round" fill="none" layerid="3" net="" id="gge179" locked="0" /><polyline points="4196.6698 3197.6048 4190.3704 3197.6048" stroke-width="1"  stroke-linecap="round" fill="none" layerid="3" net="" id="gge180" locked="0" /><polyline points="4252.5 3149.5 4252.5 3164 4230 3164 4229.5 3163.7928 4229.5 3150" stroke-width="0.7874"  stroke-linecap="round" fill="none" layerid="3" net="" id="gge200" locked="0" /><g c_partid="part_pcbtext" c_etype="" c_origin="4110,3041.5" c_rotation="0" c_mirror="0" id="gge3" locked="0" layerid="3" c_shapetype="group" display="none"><path c_fontsize="4.5" c_fontfamily="" c_text="JOYSTICK-PSP1000" d="M 4112.0502 3036.96 L 4112.0502 3040.23 L 4111.8402 3040.85 L 4111.6402 3041.05 L 4111.2302 3041.25 L 4110.8202 3041.25 L 4110.4102 3041.05 L 4110.2002 3040.85 L 4110.0002 3040.23 L 4110.0002 3039.82 M 4114.6202 3036.96 L 4114.2102 3037.16 L 4113.8002 3037.57 L 4113.6002 3037.98 L 4113.4002 3038.6 L 4113.4002 3039.62 L 4113.6002 3040.23 L 4113.8002 3040.64 L 4114.2102 3041.05 L 4114.6202 3041.25 L 4115.4402 3041.25 L 4115.8502 3041.05 L 4116.2602 3040.64 L 4116.4602 3040.23 L 4116.6702 3039.62 L 4116.6702 3038.6 L 4116.4602 3037.98 L 4116.2602 3037.57 L 4115.8502 3037.16 L 4115.4402 3036.96 L 4114.6202 3036.96 M 4118.0202 3036.96 L 4119.6502 3039 L 4119.6502 3041.25 M 4121.2902 3036.96 L 4119.6502 3039 M 4125.5002 3037.57 L 4125.1002 3037.16 L 4124.4802 3036.96 L 4123.6602 3036.96 L 4123.0502 3037.16 L 4122.6402 3037.57 L 4122.6402 3037.98 L 4122.8502 3038.39 L 4123.0502 3038.6 L 4123.4602 3038.8 L 4124.6902 3039.21 L 4125.1002 3039.41 L 4125.3002 3039.62 L 4125.5002 3040.03 L 4125.5002 3040.64 L 4125.1002 3041.05 L 4124.4802 3041.25 L 4123.6602 3041.25 L 4123.0502 3041.05 L 4122.6402 3040.64 M 4128.2902 3036.96 L 4128.2902 3041.25 M 4126.8502 3036.96 L 4129.7202 3036.96 M 4131.0702 3036.96 L 4131.0702 3041.25 M 4135.4902 3037.98 L 4135.2802 3037.57 L 4134.8702 3037.16 L 4134.4602 3036.96 L 4133.6502 3036.96 L 4133.2402 3037.16 L 4132.8302 3037.57 L 4132.6202 3037.98 L 4132.4202 3038.6 L 4132.4202 3039.62 L 4132.6202 3040.23 L 4132.8302 3040.64 L 4133.2402 3041.05 L 4133.6502 3041.25 L 4134.4602 3041.25 L 4134.8702 3041.05 L 4135.2802 3040.64 L 4135.4902 3040.23 M 4136.8402 3036.96 L 4136.8402 3041.25 M 4139.7002 3036.96 L 4136.8402 3039.82 M 4137.8602 3038.8 L 4139.7002 3041.25 M 4141.0502 3039.41 L 4144.7302 3039.41 M 4146.0802 3036.96 L 4146.0802 3041.25 M 4146.0802 3036.96 L 4147.9202 3036.96 L 4148.5402 3037.16 L 4148.7402 3037.37 L 4148.9502 3037.78 L 4148.9502 3038.39 L 4148.7402 3038.8 L 4148.5402 3039 L 4147.9202 3039.21 L 4146.0802 3039.21 M 4153.1602 3037.57 L 4152.7502 3037.16 L 4152.1402 3036.96 L 4151.3202 3036.96 L 4150.7002 3037.16 L 4150.3002 3037.57 L 4150.3002 3037.98 L 4150.5002 3038.39 L 4150.7002 3038.6 L 4151.1102 3038.8 L 4152.3402 3039.21 L 4152.7502 3039.41 L 4152.9502 3039.62 L 4153.1602 3040.03 L 4153.1602 3040.64 L 4152.7502 3041.05 L 4152.1402 3041.25 L 4151.3202 3041.25 L 4150.7002 3041.05 L 4150.3002 3040.64 M 4154.5102 3036.96 L 4154.5102 3041.25 M 4154.5102 3036.96 L 4156.3502 3036.96 L 4156.9602 3037.16 L 4157.1702 3037.37 L 4157.3702 3037.78 L 4157.3702 3038.39 L 4157.1702 3038.8 L 4156.9602 3039 L 4156.3502 3039.21 L 4154.5102 3039.21 M 4158.7202 3037.78 L 4159.1302 3037.57 L 4159.7502 3036.96 L 4159.7502 3041.25 M 4162.3202 3036.96 L 4161.7102 3037.16 L 4161.3002 3037.78 L 4161.1002 3038.8 L 4161.1002 3039.41 L 4161.3002 3040.44 L 4161.7102 3041.05 L 4162.3202 3041.25 L 4162.7302 3041.25 L 4163.3502 3041.05 L 4163.7502 3040.44 L 4163.9602 3039.41 L 4163.9602 3038.8 L 4163.7502 3037.78 L 4163.3502 3037.16 L 4162.7302 3036.96 L 4162.3202 3036.96 M 4166.5402 3036.96 L 4165.9202 3037.16 L 4165.5102 3037.78 L 4165.3102 3038.8 L 4165.3102 3039.41 L 4165.5102 3040.44 L 4165.9202 3041.05 L 4166.5402 3041.25 L 4166.9502 3041.25 L 4167.5602 3041.05 L 4167.9702 3040.44 L 4168.1702 3039.41 L 4168.1702 3038.8 L 4167.9702 3037.78 L 4167.5602 3037.16 L 4166.9502 3036.96 L 4166.5402 3036.96 M 4170.7502 3036.96 L 4170.1402 3037.16 L 4169.7302 3037.78 L 4169.5202 3038.8 L 4169.5202 3039.41 L 4169.7302 3040.44 L 4170.1402 3041.05 L 4170.7502 3041.25 L 4171.1602 3041.25 L 4171.7702 3041.05 L 4172.1802 3040.44 L 4172.3902 3039.41 L 4172.3902 3038.8 L 4172.1802 3037.78 L 4171.7702 3037.16 L 4171.1602 3036.96 L 4170.7502 3036.96" fill="none"  stroke-width="0.6" c_note="note_name" /></g><g c_partid="part_pcbtext" c_etype="" c_origin="4110,3048.5" c_rotation="0" c_mirror="0" id="gge5" locked="0" layerid="3" c_shapetype="group" ><path c_fontsize="4.5" c_fontfamily="" c_text="U4" d="M 4110 3043.96 L 4110 3047.03 L 4110.2 3047.64 L 4110.61 3048.05 L 4111.23 3048.25 L 4111.64 3048.25 L 4112.25 3048.05 L 4112.66 3047.64 L 4112.86 3047.03 L 4112.86 3043.96 M 4116.26 3043.96 L 4114.21 3046.82 L 4117.28 3046.82 M 4116.26 3043.96 L 4116.26 3048.25" fill="none"  stroke-width="0.6" c_note="note_pre" /></g><g c_partid="part_pcbtext" c_etype="" c_origin="4176.3,3207.995" c_rotation="0" c_mirror="0" id="gge47" locked="0" layerid="3" c_shapetype="group" display="none"><path c_fontsize="4.5" c_fontfamily="" c_text="5MM RGB LED (THT)" d="M 4178.75 3203.455 L 4176.71 3203.455 L 4176.5 3205.295 L 4176.71 3205.095 L 4177.32 3204.885 L 4177.94 3204.885 L 4178.55 3205.095 L 4178.96 3205.495 L 4179.16 3206.115 L 4179.16 3206.525 L 4178.96 3207.135 L 4178.55 3207.545 L 4177.94 3207.745 L 4177.32 3207.745 L 4176.71 3207.545 L 4176.5 3207.345 L 4176.3 3206.935 M 4180.51 3203.455 L 4180.51 3207.745 M 4180.51 3203.455 L 4182.15 3207.745 M 4183.79 3203.455 L 4182.15 3207.745 M 4183.79 3203.455 L 4183.79 3207.745 M 4185.14 3203.455 L 4185.14 3207.745 M 4185.14 3203.455 L 4186.77 3207.745 M 4188.41 3203.455 L 4186.77 3207.745 M 4188.41 3203.455 L 4188.41 3207.745 M 4192.91 3203.455 L 4192.91 3207.745 M 4192.91 3203.455 L 4194.75 3203.455 L 4195.36 3203.655 L 4195.57 3203.865 L 4195.77 3204.275 L 4195.77 3204.685 L 4195.57 3205.095 L 4195.36 3205.295 L 4194.75 3205.495 L 4192.91 3205.495 M 4194.34 3205.495 L 4195.77 3207.745 M 4200.19 3204.475 L 4199.99 3204.065 L 4199.58 3203.655 L 4199.17 3203.455 L 4198.35 3203.455 L 4197.94 3203.655 L 4197.53 3204.065 L 4197.33 3204.475 L 4197.12 3205.095 L 4197.12 3206.115 L 4197.33 3206.725 L 4197.53 3207.135 L 4197.94 3207.545 L 4198.35 3207.745 L 4199.17 3207.745 L 4199.58 3207.545 L 4199.99 3207.135 L 4200.19 3206.725 L 4200.19 3206.115 M 4199.17 3206.115 L 4200.19 3206.115 M 4201.54 3203.455 L 4201.54 3207.745 M 4201.54 3203.455 L 4203.38 3203.455 L 4204 3203.655 L 4204.2 3203.865 L 4204.4 3204.275 L 4204.4 3204.685 L 4204.2 3205.095 L 4204 3205.295 L 4203.38 3205.495 M 4201.54 3205.495 L 4203.38 3205.495 L 4204 3205.705 L 4204.2 3205.905 L 4204.4 3206.315 L 4204.4 3206.935 L 4204.2 3207.345 L 4204 3207.545 L 4203.38 3207.745 L 4201.54 3207.745 M 4208.9 3203.455 L 4208.9 3207.745 M 4208.9 3207.745 L 4211.36 3207.745 M 4212.71 3203.455 L 4212.71 3207.745 M 4212.71 3203.455 L 4215.37 3203.455 M 4212.71 3205.495 L 4214.35 3205.495 M 4212.71 3207.745 L 4215.37 3207.745 M 4216.72 3203.455 L 4216.72 3207.745 M 4216.72 3203.455 L 4218.15 3203.455 L 4218.76 3203.655 L 4219.17 3204.065 L 4219.38 3204.475 L 4219.58 3205.095 L 4219.58 3206.115 L 4219.38 3206.725 L 4219.17 3207.135 L 4218.76 3207.545 L 4218.15 3207.745 L 4216.72 3207.745 M 4225.51 3202.635 L 4225.1 3203.045 L 4224.7 3203.655 L 4224.29 3204.475 L 4224.08 3205.495 L 4224.08 3206.315 L 4224.29 3207.345 L 4224.7 3208.155 L 4225.1 3208.775 L 4225.51 3209.185 M 4228.3 3203.455 L 4228.3 3207.745 M 4226.86 3203.455 L 4229.73 3203.455 M 4231.08 3203.455 L 4231.08 3207.745 M 4233.94 3203.455 L 4233.94 3207.745 M 4231.08 3205.495 L 4233.94 3205.495 M 4236.72 3203.455 L 4236.72 3207.745 M 4235.29 3203.455 L 4238.15 3203.455 M 4239.5 3202.635 L 4239.91 3203.045 L 4240.32 3203.655 L 4240.73 3204.475 L 4240.94 3205.495 L 4240.94 3206.315 L 4240.73 3207.345 L 4240.32 3208.155 L 4239.91 3208.775 L 4239.5 3209.185" fill="none"  stroke-width="0.6" c_note="note_name" /></g><g c_partid="part_pcbtext" c_etype="" c_origin="4176.3,3214.995" c_rotation="0" c_mirror="0" id="gge49" locked="0" layerid="3" c_shapetype="group" ><path c_fontsize="4.5" c_fontfamily="" c_text="LED2" d="M 4176.3 3210.455 L 4176.3 3214.745 M 4176.3 3214.745 L 4178.75 3214.745 M 4180.1 3210.455 L 4180.1 3214.745 M 4180.1 3210.455 L 4182.76 3210.455 M 4180.1 3212.495 L 4181.74 3212.495 M 4180.1 3214.745 L 4182.76 3214.745 M 4184.11 3210.455 L 4184.11 3214.745 M 4184.11 3210.455 L 4185.55 3210.455 L 4186.16 3210.655 L 4186.57 3211.065 L 4186.77 3211.475 L 4186.98 3212.095 L 4186.98 3213.115 L 4186.77 3213.725 L 4186.57 3214.135 L 4186.16 3214.545 L 4185.55 3214.745 L 4184.11 3214.745 M 4188.53 3211.475 L 4188.53 3211.275 L 4188.74 3210.865 L 4188.94 3210.655 L 4189.35 3210.455 L 4190.17 3210.455 L 4190.58 3210.655 L 4190.78 3210.865 L 4190.99 3211.275 L 4190.99 3211.685 L 4190.78 3212.095 L 4190.37 3212.705 L 4188.33 3214.745 L 4191.19 3214.745" fill="none"  stroke-width="0.6" c_note="note_pre" /></g><g c_partid="part_pcbtext" c_etype="" c_origin="4204.67,3178.67" c_rotation="90" c_mirror="0" id="gge75" locked="0" layerid="3" c_shapetype="group" display="none"><path c_fontsize="4.5" c_fontfamily="" c_text="ATTINY85 (THT)" d="M 4200.1302 3177.0299 L 4204.4202 3178.6699 M 4200.1302 3177.0299 L 4204.4202 3175.3999 M 4202.9902 3178.0599 L 4202.9902 3176.0099 M 4200.1302 3172.6199 L 4204.4202 3172.6199 M 4200.1302 3174.0499 L 4200.1302 3171.1799 M 4200.1302 3168.3999 L 4204.4202 3168.3999 M 4200.1302 3169.8299 L 4200.1302 3166.9699 M 4200.1302 3165.6199 L 4204.4202 3165.6199 M 4200.1302 3164.2699 L 4204.4202 3164.2699 M 4200.1302 3164.2699 L 4204.4202 3161.4099 M 4200.1302 3161.4099 L 4204.4202 3161.4099 M 4200.1302 3160.0599 L 4202.1702 3158.4199 L 4204.4202 3158.4199 M 4200.1302 3156.7799 L 4202.1702 3158.4199 M 4200.1302 3154.4099 L 4200.3302 3155.0199 L 4200.7402 3155.2299 L 4201.1502 3155.2299 L 4201.5602 3155.0199 L 4201.7702 3154.6199 L 4201.9702 3153.7999 L 4202.1702 3153.1799 L 4202.5802 3152.7699 L 4202.9902 3152.5699 L 4203.6102 3152.5699 L 4204.0202 3152.7699 L 4204.2202 3152.9799 L 4204.4202 3153.5899 L 4204.4202 3154.4099 L 4204.2202 3155.0199 L 4204.0202 3155.2299 L 4203.6102 3155.4299 L 4202.9902 3155.4299 L 4202.5802 3155.2299 L 4202.1702 3154.8199 L 4201.9702 3154.2099 L 4201.7702 3153.3899 L 4201.5602 3152.9799 L 4201.1502 3152.7699 L 4200.7402 3152.7699 L 4200.3302 3152.9799 L 4200.1302 3153.5899 L 4200.1302 3154.4099 M 4200.1302 3148.7699 L 4200.1302 3150.8099 L 4201.9702 3151.0199 L 4201.7702 3150.8099 L 4201.5602 3150.1999 L 4201.5602 3149.5799 L 4201.7702 3148.9699 L 4202.1702 3148.5599 L 4202.7902 3148.3599 L 4203.2002 3148.3599 L 4203.8102 3148.5599 L 4204.2202 3148.9699 L 4204.4202 3149.5799 L 4204.4202 3150.1999 L 4204.2202 3150.8099 L 4204.0202 3151.0199 L 4203.6102 3151.2199 M 4199.3102 3142.4199 L 4199.7202 3142.8299 L 4200.3302 3143.2399 L 4201.1502 3143.6499 L 4202.1702 3143.8599 L 4202.9902 3143.8599 L 4204.0202 3143.6499 L 4204.8302 3143.2399 L 4205.4502 3142.8299 L 4205.8602 3142.4199 M 4200.1302 3139.6399 L 4204.4202 3139.6399 M 4200.1302 3141.0699 L 4200.1302 3138.2099 M 4200.1302 3136.8599 L 4204.4202 3136.8599 M 4200.1302 3133.9999 L 4204.4202 3133.9999 M 4202.1702 3136.8599 L 4202.1702 3133.9999 M 4200.1302 3131.2199 L 4204.4202 3131.2199 M 4200.1302 3132.6499 L 4200.1302 3129.7799 M 4199.3102 3128.4299 L 4199.7202 3128.0199 L 4200.3302 3127.6199 L 4201.1502 3127.2099 L 4202.1702 3126.9999 L 4202.9902 3126.9999 L 4204.0202 3127.2099 L 4204.8302 3127.6199 L 4205.4502 3128.0199 L 4205.8602 3128.4299" fill="none"  stroke-width="0.6" c_note="note_name" /></g><g c_partid="part_pcbtext" c_etype="" c_origin="4193.5,3127" c_rotation="270" c_mirror="0" id="gge77" locked="0" layerid="3" c_shapetype="group" ><path c_fontsize="4.5" c_fontfamily="" c_text="U3" d="M 4198.04 3127 L 4194.97 3127 L 4194.36 3127.2 L 4193.95 3127.61 L 4193.75 3128.23 L 4193.75 3128.64 L 4193.95 3129.25 L 4194.36 3129.66 L 4194.97 3129.86 L 4198.04 3129.86 M 4198.04 3131.62 L 4198.04 3133.87 L 4196.4 3132.65 L 4196.4 3133.26 L 4196.2 3133.67 L 4196 3133.87 L 4195.38 3134.08 L 4194.97 3134.08 L 4194.36 3133.87 L 4193.95 3133.46 L 4193.75 3132.85 L 4193.75 3132.24 L 4193.95 3131.62 L 4194.15 3131.42 L 4194.56 3131.21" fill="none"  stroke-width="0.6" c_note="note_pre" /></g><g c_partid="part_pcbtext" c_etype="" c_origin="4177.79,3218.318" c_rotation="90" c_mirror="0" id="gge123" locked="0" layerid="3" c_shapetype="group" display="none"><path c_fontsize="4.5" c_fontfamily="" c_text="220 Ohm" d="M 4174.27 3218.1176 L 4174.07 3218.1176 L 4173.66 3217.9076 L 4173.45 3217.7076 L 4173.25 3217.2976 L 4173.25 3216.4776 L 4173.45 3216.0676 L 4173.66 3215.8676 L 4174.07 3215.6576 L 4174.48 3215.6576 L 4174.89 3215.8676 L 4175.5 3216.2676 L 4177.54 3218.3176 L 4177.54 3215.4576 M 4174.27 3213.8976 L 4174.07 3213.8976 L 4173.66 3213.6976 L 4173.45 3213.4876 L 4173.25 3213.0776 L 4173.25 3212.2676 L 4173.45 3211.8576 L 4173.66 3211.6476 L 4174.07 3211.4476 L 4174.48 3211.4476 L 4174.89 3211.6476 L 4175.5 3212.0576 L 4177.54 3214.1076 L 4177.54 3211.2376 M 4173.25 3208.6676 L 4173.45 3209.2776 L 4174.07 3209.6876 L 4175.09 3209.8876 L 4175.7 3209.8876 L 4176.73 3209.6876 L 4177.34 3209.2776 L 4177.54 3208.6676 L 4177.54 3208.2576 L 4177.34 3207.6376 L 4176.73 3207.2276 L 4175.7 3207.0276 L 4175.09 3207.0276 L 4174.07 3207.2276 L 4173.45 3207.6376 L 4173.25 3208.2576 L 4173.25 3208.6676 M 4173.25 3201.2976 L 4173.45 3201.7076 L 4173.86 3202.1176 L 4174.27 3202.3176 L 4174.89 3202.5276 L 4175.91 3202.5276 L 4176.52 3202.3176 L 4176.93 3202.1176 L 4177.34 3201.7076 L 4177.54 3201.2976 L 4177.54 3200.4776 L 4177.34 3200.0676 L 4176.93 3199.6676 L 4176.52 3199.4576 L 4175.91 3199.2576 L 4174.89 3199.2576 L 4174.27 3199.4576 L 4173.86 3199.6676 L 4173.45 3200.0676 L 4173.25 3200.4776 L 4173.25 3201.2976 M 4173.25 3197.9076 L 4177.54 3197.9076 M 4175.5 3197.9076 L 4174.89 3197.2876 L 4174.68 3196.8776 L 4174.68 3196.2676 L 4174.89 3195.8576 L 4175.5 3195.6576 L 4177.54 3195.6576 M 4174.68 3194.3076 L 4177.54 3194.3076 M 4175.5 3194.3076 L 4174.89 3193.6876 L 4174.68 3193.2776 L 4174.68 3192.6676 L 4174.89 3192.2576 L 4175.5 3192.0576 L 4177.54 3192.0576 M 4175.5 3192.0576 L 4174.89 3191.4376 L 4174.68 3191.0276 L 4174.68 3190.4176 L 4174.89 3190.0076 L 4175.5 3189.8076 L 4177.54 3189.8076" fill="none"  stroke-width="0.6" c_note="note_name" /></g><g c_partid="part_pcbtext" c_etype="" c_origin="4166,3189.807" c_rotation="270" c_mirror="0" id="gge125" locked="0" layerid="3" c_shapetype="group" ><path c_fontsize="4.5" c_fontfamily="" c_text="R4" d="M 4170.54 3189.8074 L 4166.25 3189.8074 M 4170.54 3189.8074 L 4170.54 3191.6474 L 4170.34 3192.2574 L 4170.13 3192.4674 L 4169.72 3192.6674 L 4169.31 3192.6674 L 4168.9 3192.4674 L 4168.7 3192.2574 L 4168.5 3191.6474 L 4168.5 3189.8074 M 4168.5 3191.2374 L 4166.25 3192.6674 M 4170.54 3196.0674 L 4167.68 3194.0174 L 4167.68 3197.0874 M 4170.54 3196.0674 L 4166.25 3196.0674" fill="none"  stroke-width="0.6" c_note="note_pre" /></g><g c_partid="part_pcbtext" c_etype="" c_origin="4192.79,3218.818" c_rotation="90" c_mirror="0" id="gge147" locked="0" layerid="3" c_shapetype="group" display="none"><path c_fontsize="4.5" c_fontfamily="" c_text="220 Ohm" d="M 4189.27 3218.6176 L 4189.07 3218.6176 L 4188.66 3218.4076 L 4188.45 3218.2076 L 4188.25 3217.7976 L 4188.25 3216.9776 L 4188.45 3216.5676 L 4188.66 3216.3676 L 4189.07 3216.1576 L 4189.48 3216.1576 L 4189.89 3216.3676 L 4190.5 3216.7676 L 4192.54 3218.8176 L 4192.54 3215.9576 M 4189.27 3214.3976 L 4189.07 3214.3976 L 4188.66 3214.1976 L 4188.45 3213.9876 L 4188.25 3213.5776 L 4188.25 3212.7676 L 4188.45 3212.3576 L 4188.66 3212.1476 L 4189.07 3211.9476 L 4189.48 3211.9476 L 4189.89 3212.1476 L 4190.5 3212.5576 L 4192.54 3214.6076 L 4192.54 3211.7376 M 4188.25 3209.1676 L 4188.45 3209.7776 L 4189.07 3210.1876 L 4190.09 3210.3876 L 4190.7 3210.3876 L 4191.73 3210.1876 L 4192.34 3209.7776 L 4192.54 3209.1676 L 4192.54 3208.7576 L 4192.34 3208.1376 L 4191.73 3207.7276 L 4190.7 3207.5276 L 4190.09 3207.5276 L 4189.07 3207.7276 L 4188.45 3208.1376 L 4188.25 3208.7576 L 4188.25 3209.1676 M 4188.25 3201.7976 L 4188.45 3202.2076 L 4188.86 3202.6176 L 4189.27 3202.8176 L 4189.89 3203.0276 L 4190.91 3203.0276 L 4191.52 3202.8176 L 4191.93 3202.6176 L 4192.34 3202.2076 L 4192.54 3201.7976 L 4192.54 3200.9776 L 4192.34 3200.5676 L 4191.93 3200.1676 L 4191.52 3199.9576 L 4190.91 3199.7576 L 4189.89 3199.7576 L 4189.27 3199.9576 L 4188.86 3200.1676 L 4188.45 3200.5676 L 4188.25 3200.9776 L 4188.25 3201.7976 M 4188.25 3198.4076 L 4192.54 3198.4076 M 4190.5 3198.4076 L 4189.89 3197.7876 L 4189.68 3197.3776 L 4189.68 3196.7676 L 4189.89 3196.3576 L 4190.5 3196.1576 L 4192.54 3196.1576 M 4189.68 3194.8076 L 4192.54 3194.8076 M 4190.5 3194.8076 L 4189.89 3194.1876 L 4189.68 3193.7776 L 4189.68 3193.1676 L 4189.89 3192.7576 L 4190.5 3192.5576 L 4192.54 3192.5576 M 4190.5 3192.5576 L 4189.89 3191.9376 L 4189.68 3191.5276 L 4189.68 3190.9176 L 4189.89 3190.5076 L 4190.5 3190.3076 L 4192.54 3190.3076" fill="none"  stroke-width="0.6" c_note="note_name" /></g><g c_partid="part_pcbtext" c_etype="" c_origin="4181,3190.307" c_rotation="270" c_mirror="0" id="gge149" locked="0" layerid="3" c_shapetype="group" ><path c_fontsize="4.5" c_fontfamily="" c_text="R5" d="M 4185.54 3190.3074 L 4181.25 3190.3074 M 4185.54 3190.3074 L 4185.54 3192.1474 L 4185.34 3192.7574 L 4185.13 3192.9674 L 4184.72 3193.1674 L 4184.31 3193.1674 L 4183.9 3192.9674 L 4183.7 3192.7574 L 4183.5 3192.1474 L 4183.5 3190.3074 M 4183.5 3191.7374 L 4181.25 3193.1674 M 4185.54 3196.9774 L 4185.54 3194.9274 L 4183.7 3194.7274 L 4183.9 3194.9274 L 4184.11 3195.5474 L 4184.11 3196.1574 L 4183.9 3196.7674 L 4183.5 3197.1774 L 4182.88 3197.3874 L 4182.47 3197.3874 L 4181.86 3197.1774 L 4181.45 3196.7674 L 4181.25 3196.1574 L 4181.25 3195.5474 L 4181.45 3194.9274 L 4181.65 3194.7274 L 4182.06 3194.5174" fill="none"  stroke-width="0.6" c_note="note_pre" /></g><g c_partid="part_pcbtext" c_etype="" c_origin="4209.79,3219.818" c_rotation="90" c_mirror="0" id="gge171" locked="0" layerid="3" c_shapetype="group" display="none"><path c_fontsize="4.5" c_fontfamily="" c_text="220 Ohm" d="M 4206.27 3219.6176 L 4206.07 3219.6176 L 4205.66 3219.4076 L 4205.45 3219.2076 L 4205.25 3218.7976 L 4205.25 3217.9776 L 4205.45 3217.5676 L 4205.66 3217.3676 L 4206.07 3217.1576 L 4206.48 3217.1576 L 4206.89 3217.3676 L 4207.5 3217.7676 L 4209.54 3219.8176 L 4209.54 3216.9576 M 4206.27 3215.3976 L 4206.07 3215.3976 L 4205.66 3215.1976 L 4205.45 3214.9876 L 4205.25 3214.5776 L 4205.25 3213.7676 L 4205.45 3213.3576 L 4205.66 3213.1476 L 4206.07 3212.9476 L 4206.48 3212.9476 L 4206.89 3213.1476 L 4207.5 3213.5576 L 4209.54 3215.6076 L 4209.54 3212.7376 M 4205.25 3210.1676 L 4205.45 3210.7776 L 4206.07 3211.1876 L 4207.09 3211.3876 L 4207.7 3211.3876 L 4208.73 3211.1876 L 4209.34 3210.7776 L 4209.54 3210.1676 L 4209.54 3209.7576 L 4209.34 3209.1376 L 4208.73 3208.7276 L 4207.7 3208.5276 L 4207.09 3208.5276 L 4206.07 3208.7276 L 4205.45 3209.1376 L 4205.25 3209.7576 L 4205.25 3210.1676 M 4205.25 3202.7976 L 4205.45 3203.2076 L 4205.86 3203.6176 L 4206.27 3203.8176 L 4206.89 3204.0276 L 4207.91 3204.0276 L 4208.52 3203.8176 L 4208.93 3203.6176 L 4209.34 3203.2076 L 4209.54 3202.7976 L 4209.54 3201.9776 L 4209.34 3201.5676 L 4208.93 3201.1676 L 4208.52 3200.9576 L 4207.91 3200.7576 L 4206.89 3200.7576 L 4206.27 3200.9576 L 4205.86 3201.1676 L 4205.45 3201.5676 L 4205.25 3201.9776 L 4205.25 3202.7976 M 4205.25 3199.4076 L 4209.54 3199.4076 M 4207.5 3199.4076 L 4206.89 3198.7876 L 4206.68 3198.3776 L 4206.68 3197.7676 L 4206.89 3197.3576 L 4207.5 3197.1576 L 4209.54 3197.1576 M 4206.68 3195.8076 L 4209.54 3195.8076 M 4207.5 3195.8076 L 4206.89 3195.1876 L 4206.68 3194.7776 L 4206.68 3194.1676 L 4206.89 3193.7576 L 4207.5 3193.5576 L 4209.54 3193.5576 M 4207.5 3193.5576 L 4206.89 3192.9376 L 4206.68 3192.5276 L 4206.68 3191.9176 L 4206.89 3191.5076 L 4207.5 3191.3076 L 4209.54 3191.3076" fill="none"  stroke-width="0.6" c_note="note_name" /></g><g c_partid="part_pcbtext" c_etype="" c_origin="4198,3191.307" c_rotation="270" c_mirror="0" id="gge173" locked="0" layerid="3" c_shapetype="group" ><path c_fontsize="4.5" c_fontfamily="" c_text="R6" d="M 4202.54 3191.3074 L 4198.25 3191.3074 M 4202.54 3191.3074 L 4202.54 3193.1474 L 4202.34 3193.7574 L 4202.13 3193.9674 L 4201.72 3194.1674 L 4201.31 3194.1674 L 4200.9 3193.9674 L 4200.7 3193.7574 L 4200.5 3193.1474 L 4200.5 3191.3074 M 4200.5 3192.7374 L 4198.25 3194.1674 M 4201.93 3197.9774 L 4202.34 3197.7674 L 4202.54 3197.1574 L 4202.54 3196.7474 L 4202.34 3196.1374 L 4201.72 3195.7274 L 4200.7 3195.5174 L 4199.68 3195.5174 L 4198.86 3195.7274 L 4198.45 3196.1374 L 4198.25 3196.7474 L 4198.25 3196.9574 L 4198.45 3197.5674 L 4198.86 3197.9774 L 4199.47 3198.1774 L 4199.68 3198.1774 L 4200.29 3197.9774 L 4200.7 3197.5674 L 4200.9 3196.9574 L 4200.9 3196.7474 L 4200.7 3196.1374 L 4200.29 3195.7274 L 4199.68 3195.5174" fill="none"  stroke-width="0.6" c_note="note_pre" /></g><g c_partid="part_pcbtext" c_etype="" c_origin="4189,3114.75" c_rotation="90" c_mirror="0" id="gge195" locked="0" layerid="3" c_shapetype="group" display="none"><path c_fontsize="4.5" c_fontfamily="" c_text="CR2032 BATTERY HOLDER (THT)" d="M 4185.48 3111.68 L 4185.07 3111.89 L 4184.66 3112.3 L 4184.46 3112.7 L 4184.46 3113.52 L 4184.66 3113.93 L 4185.07 3114.34 L 4185.48 3114.55 L 4186.1 3114.75 L 4187.12 3114.75 L 4187.73 3114.55 L 4188.14 3114.34 L 4188.55 3113.93 L 4188.75 3113.52 L 4188.75 3112.7 L 4188.55 3112.3 L 4188.14 3111.89 L 4187.73 3111.68 M 4184.46 3110.33 L 4188.75 3110.33 M 4184.46 3110.33 L 4184.46 3108.49 L 4184.66 3107.88 L 4184.87 3107.67 L 4185.28 3107.47 L 4185.69 3107.47 L 4186.1 3107.67 L 4186.3 3107.88 L 4186.5 3108.49 L 4186.5 3110.33 M 4186.5 3108.9 L 4188.75 3107.47 M 4185.48 3105.91 L 4185.28 3105.91 L 4184.87 3105.71 L 4184.66 3105.5 L 4184.46 3105.1 L 4184.46 3104.28 L 4184.66 3103.87 L 4184.87 3103.66 L 4185.28 3103.46 L 4185.69 3103.46 L 4186.1 3103.66 L 4186.71 3104.07 L 4188.75 3106.12 L 4188.75 3103.25 M 4184.46 3100.68 L 4184.66 3101.29 L 4185.28 3101.7 L 4186.3 3101.9 L 4186.91 3101.9 L 4187.94 3101.7 L 4188.55 3101.29 L 4188.75 3100.68 L 4188.75 3100.27 L 4188.55 3099.65 L 4187.94 3099.25 L 4186.91 3099.04 L 4186.3 3099.04 L 4185.28 3099.25 L 4184.66 3099.65 L 4184.46 3100.27 L 4184.46 3100.68 M 4184.46 3097.28 L 4184.46 3095.03 L 4186.1 3096.26 L 4186.1 3095.65 L 4186.3 3095.24 L 4186.5 3095.03 L 4187.12 3094.83 L 4187.53 3094.83 L 4188.14 3095.03 L 4188.55 3095.44 L 4188.75 3096.05 L 4188.75 3096.67 L 4188.55 3097.28 L 4188.35 3097.49 L 4187.94 3097.69 M 4185.48 3093.27 L 4185.28 3093.27 L 4184.87 3093.07 L 4184.66 3092.86 L 4184.46 3092.45 L 4184.46 3091.64 L 4184.66 3091.23 L 4184.87 3091.02 L 4185.28 3090.82 L 4185.69 3090.82 L 4186.1 3091.02 L 4186.71 3091.43 L 4188.75 3093.48 L 4188.75 3090.61 M 4184.46 3086.11 L 4188.75 3086.11 M 4184.46 3086.11 L 4184.46 3084.27 L 4184.66 3083.66 L 4184.87 3083.45 L 4185.28 3083.25 L 4185.69 3083.25 L 4186.1 3083.45 L 4186.3 3083.66 L 4186.5 3084.27 M 4186.5 3086.11 L 4186.5 3084.27 L 4186.71 3083.66 L 4186.91 3083.45 L 4187.32 3083.25 L 4187.94 3083.25 L 4188.35 3083.45 L 4188.55 3083.66 L 4188.75 3084.27 L 4188.75 3086.11 M 4184.46 3080.26 L 4188.75 3081.9 M 4184.46 3080.26 L 4188.75 3078.63 M 4187.32 3081.29 L 4187.32 3079.24 M 4184.46 3075.85 L 4188.75 3075.85 M 4184.46 3077.28 L 4184.46 3074.41 M 4184.46 3071.63 L 4188.75 3071.63 M 4184.46 3073.06 L 4184.46 3070.2 M 4184.46 3068.85 L 4188.75 3068.85 M 4184.46 3068.85 L 4184.46 3066.19 M 4186.5 3068.85 L 4186.5 3067.21 M 4188.75 3068.85 L 4188.75 3066.19 M 4184.46 3064.84 L 4188.75 3064.84 M 4184.46 3064.84 L 4184.46 3063 L 4184.66 3062.39 L 4184.87 3062.18 L 4185.28 3061.98 L 4185.69 3061.98 L 4186.1 3062.18 L 4186.3 3062.39 L 4186.5 3063 L 4186.5 3064.84 M 4186.5 3063.41 L 4188.75 3061.98 M 4184.46 3060.63 L 4186.5 3058.99 L 4188.75 3058.99 M 4184.46 3057.35 L 4186.5 3058.99 M 4184.46 3052.85 L 4188.75 3052.85 M 4184.46 3049.99 L 4188.75 3049.99 M 4186.5 3052.85 L 4186.5 3049.99 M 4184.46 3047.41 L 4184.66 3047.82 L 4185.07 3048.23 L 4185.48 3048.44 L 4186.1 3048.64 L 4187.12 3048.64 L 4187.73 3048.44 L 4188.14 3048.23 L 4188.55 3047.82 L 4188.75 3047.41 L 4188.75 3046.6 L 4188.55 3046.19 L 4188.14 3045.78 L 4187.73 3045.57 L 4187.12 3045.37 L 4186.1 3045.37 L 4185.48 3045.57 L 4185.07 3045.78 L 4184.66 3046.19 L 4184.46 3046.6 L 4184.46 3047.41 M 4184.46 3044.02 L 4188.75 3044.02 M 4188.75 3044.02 L 4188.75 3041.56 M 4184.46 3040.21 L 4188.75 3040.21 M 4184.46 3040.21 L 4184.46 3038.78 L 4184.66 3038.17 L 4185.07 3037.76 L 4185.48 3037.55 L 4186.1 3037.35 L 4187.12 3037.35 L 4187.73 3037.55 L 4188.14 3037.76 L 4188.55 3038.17 L 4188.75 3038.78 L 4188.75 3040.21 M 4184.46 3036 L 4188.75 3036 M 4184.46 3036 L 4184.46 3033.34 M 4186.5 3036 L 4186.5 3034.36 M 4188.75 3036 L 4188.75 3033.34 M 4184.46 3031.99 L 4188.75 3031.99 M 4184.46 3031.99 L 4184.46 3030.15 L 4184.66 3029.54 L 4184.87 3029.33 L 4185.28 3029.13 L 4185.69 3029.13 L 4186.1 3029.33 L 4186.3 3029.54 L 4186.5 3030.15 L 4186.5 3031.99 M 4186.5 3030.56 L 4188.75 3029.13 M 4183.64 3023.2 L 4184.05 3023.6 L 4184.66 3024.01 L 4185.48 3024.42 L 4186.5 3024.63 L 4187.32 3024.63 L 4188.35 3024.42 L 4189.16 3024.01 L 4189.78 3023.6 L 4190.19 3023.2 M 4184.46 3020.41 L 4188.75 3020.41 M 4184.46 3021.85 L 4184.46 3018.98 M 4184.46 3017.63 L 4188.75 3017.63 M 4184.46 3014.77 L 4188.75 3014.77 M 4186.5 3017.63 L 4186.5 3014.77 M 4184.46 3011.99 L 4188.75 3011.99 M 4184.46 3013.42 L 4184.46 3010.55 M 4183.64 3009.2 L 4184.05 3008.8 L 4184.66 3008.39 L 4185.48 3007.98 L 4186.5 3007.77 L 4187.32 3007.77 L 4188.35 3007.98 L 4189.16 3008.39 L 4189.78 3008.8 L 4190.19 3009.2" fill="none"  stroke-width="0.6" c_note="note_name" /></g><g c_partid="part_pcbtext" c_etype="" c_origin="4196,3114.75" c_rotation="90" c_mirror="0" id="gge197" locked="0" layerid="3" c_shapetype="group" ><path c_fontsize="4.5" c_fontfamily="" c_text="B3" d="M 4191.46 3114.75 L 4195.75 3114.75 M 4191.46 3114.75 L 4191.46 3112.91 L 4191.66 3112.3 L 4191.87 3112.09 L 4192.28 3111.89 L 4192.69 3111.89 L 4193.1 3112.09 L 4193.3 3112.3 L 4193.5 3112.91 M 4193.5 3114.75 L 4193.5 3112.91 L 4193.71 3112.3 L 4193.91 3112.09 L 4194.32 3111.89 L 4194.94 3111.89 L 4195.35 3112.09 L 4195.55 3112.3 L 4195.75 3112.91 L 4195.75 3114.75 M 4191.46 3110.13 L 4191.46 3107.88 L 4193.1 3109.1 L 4193.1 3108.49 L 4193.3 3108.08 L 4193.5 3107.88 L 4194.12 3107.67 L 4194.53 3107.67 L 4195.14 3107.88 L 4195.55 3108.29 L 4195.75 3108.9 L 4195.75 3109.51 L 4195.55 3110.13 L 4195.35 3110.33 L 4194.94 3110.54" fill="none"  stroke-width="0.6" c_note="note_pre" /></g><path d="M 4189.5 3124 A 3 3 0 1 0 4189.5 3130" locked="0"  fill="none" stroke-width="1" c_helper_type="arc2" net="" layerid="3" id="gge80" /><path d="M 4240.75 3064.5 A 43.25072 43.25072 0 1 0 4241.52 3064.51" locked="0"  fill="none" stroke-width="1" c_helper_type="arc2" net="" layerid="3" id="gge199" /><circle cx="4176.3" cy="3228.389" r="11.811" stroke-width="1" fill="none" layerid="3" id="gge51" locked="0"  /><polyline points="4067.5 3049.5 4291 3050 4291 3243 4290.5 3242.5" stroke-width="1"  stroke-linecap="round" fill="none" layerid="10" net="" id="gge227" locked="0" /><polyline points="4290.5 3243 4067.5 3242.5" stroke-width="1"  stroke-linecap="round" fill="none" layerid="10" net="" id="gge229" locked="0" /><polyline points="4067.5 3243 4067.5 3050" stroke-width="1"  stroke-linecap="round" fill="none" layerid="10" net="" id="gge228" locked="0" /></svg>