<svg xmlns="http://www.w3.org/2000/svg" xmlns:xlink="http://www.w3.org/1999/xlink" width="75.184mm" height="51.816mm" viewBox="4040 3040 296 204"><title></title><style type="text/css">
*[layerid="1"] {stroke:#000000;fill:#000000;}
*[layerid="2"] {stroke:#000000;fill:#000000;}
*[layerid="3"] {stroke:#000000;fill:#000000;}
*[layerid="4"] {stroke:#000000;fill:#000000;}
*[layerid="5"] {stroke:#000000;fill:#000000;}
*[layerid="6"] {stroke:#000000;fill:#000000;}
*[layerid="7"] {stroke:#000000;fill:#000000;}
*[layerid="8"] {stroke:#000000;fill:#000000;}
*[layerid="9"] {stroke:#000000;fill:#000000;}
*[layerid="10"] {stroke:#000000;fill:#000000;}
*[layerid="11"] {stroke:#000000;fill:#000000;}
*[layerid="12"] {stroke:#000000;fill:#000000;}
*[layerid="13"] {stroke:#000000;fill:#000000;}
*[layerid="14"] {stroke:#000000;fill:#000000;}
*[layerid="15"] {stroke:#000000;fill:#000000;}
*[layerid="19"] {stroke:#000000;fill:#000000;}
*[layerid="21"] {stroke:#000000;fill:#000000;}
*[layerid="22"] {stroke:#000000;fill:#000000;}
*[layerid="23"] {stroke:#000000;fill:#000000;}
*[layerid="24"] {stroke:#000000;fill:#000000;}
*[layerid="25"] {stroke:#000000;fill:#000000;}
*[layerid="26"] {stroke:#000000;fill:#000000;}
*[layerid="27"] {stroke:#000000;fill:#000000;}
*[layerid="28"] {stroke:#000000;fill:#000000;}
*[layerid="29"] {stroke:#000000;fill:#000000;}
*[layerid="30"] {stroke:#000000;fill:#000000;}
*[layerid="31"] {stroke:#000000;fill:#000000;}
*[layerid="32"] {stroke:#000000;fill:#000000;}
*[layerid="33"] {stroke:#000000;fill:#000000;}
*[layerid="34"] {stroke:#000000;fill:#000000;}
*[layerid="35"] {stroke:#000000;fill:#000000;}
*[layerid="36"] {stroke:#000000;fill:#000000;}
*[layerid="37"] {stroke:#000000;fill:#000000;}
*[layerid="38"] {stroke:#000000;fill:#000000;}
*[layerid="39"] {stroke:#000000;fill:#000000;}
*[layerid="40"] {stroke:#000000;fill:#000000;}
*[layerid="41"] {stroke:#000000;fill:#000000;}
*[layerid="42"] {stroke:#000000;fill:#000000;}
*[layerid="43"] {stroke:#000000;fill:#000000;}
*[layerid="44"] {stroke:#000000;fill:#000000;}
*[layerid="45"] {stroke:#000000;fill:#000000;}
*[layerid="46"] {stroke:#000000;fill:#000000;}
*[layerid="47"] {stroke:#000000;fill:#000000;}
*[layerid="48"] {stroke:#000000;fill:#000000;}
*[layerid="49"] {stroke:#000000;fill:#000000;}
*[layerid="50"] {stroke:#000000;fill:#000000;}
*[layerid="51"] {stroke:#000000;fill:#000000;}
*[layerid="52"] {stroke:#000000;fill:#000000;}
*[layerid="99"] {stroke:#000000;fill:#000000;}
*[layerid="100"] {stroke:#000000;fill:#000000;}
*[layerid="101"] {stroke:#000000;fill:#000000;}
*[layerid="Hole"] {stroke:#000000;fill:#000000;}
*[layerid="DRCError"] {stroke:#000000;fill:#000000;}
*[fill="none"] {fill: none;}
*[stroke="none"] {stroke: none;}
path, polyline, polygon, line {stroke-linecap:round;}
g[c_partid="part_pad"][layerid="1"] ellipse:not([c_etype="pad_outer"]) {fill:#000000;}
g[c_partid="part_pad"][layerid="1"] polygon:not([c_etype="pad_outer"]) {fill:#000000;}
g[c_partid="part_pad"][layerid="1"] polyline:not([c_etype="pad_outer"]) {stroke:#000000;}
g[c_partid="part_pad"][layerid="2"] ellipse:not([c_etype="pad_outer"]) {fill:#000000;}
g[c_partid="part_pad"][layerid="2"] polygon:not([c_etype="pad_outer"]) {fill:#000000;}
g[c_partid="part_pad"][layerid="2"] polyline:not([c_etype="pad_outer"]) {stroke:#000000;}
g[c_partid="part_pad"][layerid="11"] ellipse:not([c_etype="pad_outer"]) {fill:#000000;}
g[c_partid="part_pad"][layerid="11"] polygon:not([c_etype="pad_outer"]) {fill:#000000;}
g[c_partid="part_pad"][layerid="11"] polyline:not([c_etype="pad_outer"]) {stroke:#000000;}
g[c_partid="part_pad"][layerid="11"] circle {fill:#FFFFFF;}
g[c_partid="part_pad"][layerid="11"] > polyline:nth-of-type(2) {stroke:#FFFFFF;}
g[c_partid="part_pad"][layerid="11"][c_shape="ELLIPSE"]  polyline:nth-last-of-type(1) {stroke:#FFFFFF;}
g[c_partid="part_pad"][layerid="11"][c_shape="RECT"]  polyline:nth-last-of-type(1) {stroke:#FFFFFF;}
g[c_partid="part_pad"][layerid="11"][c_shape="POLYGON"]  polyline:nth-last-of-type(1) {stroke:#FFFFFF;}
g[c_partid="part_via"] > * + circle, #gCurParts g[c_partid="part_via"] > * + circle {fill:#FFFFFF;}
g[c_partid="part_pad"] > polygon[c_etype="pad_outer"], #gCurParts g[c_partid="part_pad"] > polygon[c_etype="pad_outer"] {stroke-linejoin: miter;stroke-miterlimit: 100;}
g[c_partid="part_hole"] > circle {fill: #FFFFFF;}path, polyline, polygon {stroke-linejoin:round;}
rect, circle, ellipse, polyline, line, polygon, path {shape-rendering:crispEdges;}
</style>
<rect x="4040" y="3040" width="296" height="204" fill="#FFFFFF" stroke="none"/><polyline points="4096 3192 4100 3196 4168.5 3196" stroke-width="1"  stroke-linecap="round" fill="none" layerid="1" net="GND" id="gge144" locked="0" /><polyline points="4168.5 3196 4182 3196 4196.5 3181.5" stroke-width="1"  stroke-linecap="round" fill="none" layerid="1" net="GND" id="gge145" locked="0" /><polyline points="4168.5 3146 4168.5 3156.5 4180 3168 4193 3168 4196.5 3171.5" stroke-width="1"  stroke-linecap="round" fill="none" layerid="1" net="U1_3" id="gge146" locked="0" /><polyline points="4096 3109.5 4184.5 3109.5 4226.5 3151.5" stroke-width="1"  stroke-linecap="round" fill="none" layerid="1" net="VCC" id="gge147" locked="0" /><polyline points="4291.5 3169.6 4234.6 3169.6 4226.5 3161.5" stroke-width="1"  stroke-linecap="round" fill="none" layerid="1" net="U1_7" id="gge148" locked="0" /><polyline points="4291.5 3096.4 4309.5 3114.4 4309.5 3198.5 4213.5 3198.5 4196.5 3181.5" stroke-width="1"  stroke-linecap="round" fill="none" layerid="1" net="GND" id="gge149" locked="0" /><g c_partid="part_pad" c_etype="pinpart" c_origin="4291.5,3169.6" layerid="1" number="P$1" net="U1_7" plated ="Y"  id="gge11" locked="0" c_rotation="90" c_width="9.84" c_height="11.81" title="U1_7" c_shape="RECT" pasteexpansion="0" solderexpansion="0.4"><polygon  c_etype="pad_shell" points="4285.595 3174.52 4285.595 3164.68 4297.405 3164.68 4297.405 3174.52" layerid="1" stroke-width="0" /><circle c_etype="pad_hole" cx="4291.5" cy="3169.6" r="0" layerid="1" stroke-width="0"/></g><g c_partid="part_pad" c_etype="pinpart" c_origin="4291.5,3096.4" layerid="1" number="P$2" net="GND" plated ="Y"  id="gge16" locked="0" c_rotation="90" c_width="9.84" c_height="11.81" title="GND" c_shape="RECT" pasteexpansion="0" solderexpansion="0.4"><polygon  c_etype="pad_shell" points="4285.595 3101.32 4285.595 3091.48 4297.405 3091.48 4297.405 3101.32" layerid="1" stroke-width="0" /><circle c_etype="pad_hole" cx="4291.5" cy="3096.4" r="0" layerid="1" stroke-width="0"/></g><g c_partid="part_pad" c_etype="pinpart" c_origin="4196.5,3151.5" layerid="11" number="1" net="U1_1" plated ="Y"  id="gge29" locked="0" c_rotation="0" c_width="6" c_height="6" title="U1_1" c_shape="RECT" pasteexpansion="0" solderexpansion="0.4"><polygon  c_etype="pad_shell" points="4193.5 3148.5 4199.5 3148.5 4199.5 3154.5 4193.5 3154.5" layerid="11" stroke-width="0" /><circle c_etype="pad_hole" cx="4196.5" cy="3151.5" r="1.8" layerid="11" stroke-width="0"/></g><g c_partid="part_pad" c_etype="pinpart" c_origin="4196.5,3161.5" layerid="11" number="2" net="U1_2" plated ="Y"  id="gge34" locked="0" c_rotation="0" c_width="6" c_height="6" title="U1_2" c_shape="ELLIPSE" pasteexpansion="0" solderexpansion="0.4"><ellipse c_etype="pad_shell" cx="4196.5" cy="3161.5" rx="3" ry="3" layerid="11" stroke-width="0"/><circle c_etype="pad_hole" cx="4196.5" cy="3161.5" r="1.8" layerid="11" stroke-width="0"/></g><g c_partid="part_pad" c_etype="pinpart" c_origin="4196.5,3171.5" layerid="11" number="3" net="U1_3" plated ="Y"  id="gge39" locked="0" c_rotation="0" c_width="6" c_height="6" title="U1_3" c_shape="ELLIPSE" pasteexpansion="0" solderexpansion="0.4"><ellipse c_etype="pad_shell" cx="4196.5" cy="3171.5" rx="3" ry="3" layerid="11" stroke-width="0"/><circle c_etype="pad_hole" cx="4196.5" cy="3171.5" r="1.8" layerid="11" stroke-width="0"/></g><g c_partid="part_pad" c_etype="pinpart" c_origin="4196.5,3181.5" layerid="11" number="4" net="GND" plated ="Y"  id="gge44" locked="0" c_rotation="0" c_width="6" c_height="6" title="GND" c_shape="ELLIPSE" pasteexpansion="0" solderexpansion="0.4"><ellipse c_etype="pad_shell" cx="4196.5" cy="3181.5" rx="3" ry="3" layerid="11" stroke-width="0"/><circle c_etype="pad_hole" cx="4196.5" cy="3181.5" r="1.8" layerid="11" stroke-width="0"/></g><g c_partid="part_pad" c_etype="pinpart" c_origin="4226.5,3181.5" layerid="11" number="5" net="U1_5" plated ="Y"  id="gge49" locked="0" c_rotation="0" c_width="6" c_height="6" title="U1_5" c_shape="ELLIPSE" pasteexpansion="0" solderexpansion="0.4"><ellipse c_etype="pad_shell" cx="4226.5" cy="3181.5" rx="3" ry="3" layerid="11" stroke-width="0"/><circle c_etype="pad_hole" cx="4226.5" cy="3181.5" r="1.8" layerid="11" stroke-width="0"/></g><g c_partid="part_pad" c_etype="pinpart" c_origin="4226.5,3171.5" layerid="11" number="6" net="U1_6" plated ="Y"  id="gge54" locked="0" c_rotation="0" c_width="6" c_height="6" title="U1_6" c_shape="ELLIPSE" pasteexpansion="0" solderexpansion="0.4"><ellipse c_etype="pad_shell" cx="4226.5" cy="3171.5" rx="3" ry="3" layerid="11" stroke-width="0"/><circle c_etype="pad_hole" cx="4226.5" cy="3171.5" r="1.8" layerid="11" stroke-width="0"/></g><g c_partid="part_pad" c_etype="pinpart" c_origin="4226.5,3161.5" layerid="11" number="7" net="U1_7" plated ="Y"  id="gge59" locked="0" c_rotation="0" c_width="6" c_height="6" title="U1_7" c_shape="ELLIPSE" pasteexpansion="0" solderexpansion="0.4"><ellipse c_etype="pad_shell" cx="4226.5" cy="3161.5" rx="3" ry="3" layerid="11" stroke-width="0"/><circle c_etype="pad_hole" cx="4226.5" cy="3161.5" r="1.8" layerid="11" stroke-width="0"/></g><g c_partid="part_pad" c_etype="pinpart" c_origin="4226.5,3151.5" layerid="11" number="8" net="VCC" plated ="Y"  id="gge64" locked="0" c_rotation="0" c_width="6" c_height="6" title="VCC" c_shape="ELLIPSE" pasteexpansion="0" solderexpansion="0.4"><ellipse c_etype="pad_shell" cx="4226.5" cy="3151.5" rx="3" ry="3" layerid="11" stroke-width="0"/><circle c_etype="pad_hole" cx="4226.5" cy="3151.5" r="1.8" layerid="11" stroke-width="0"/></g><g c_partid="part_pad" c_etype="pinpart" c_origin="4168.5,3196" layerid="11" number="1" net="GND" plated ="Y"  id="gge79" locked="0" c_rotation="180" c_width="4.72" c_height="4.72" title="GND" c_shape="RECT" pasteexpansion="0" solderexpansion="0.4"><polygon  c_etype="pad_shell" points="4170.86 3198.36 4166.14 3198.36 4166.14 3193.64 4170.86 3193.64" layerid="11" stroke-width="0" /><circle c_etype="pad_hole" cx="4168.5" cy="3196" r="1.57" layerid="11" stroke-width="0"/></g><g c_partid="part_pad" c_etype="pinpart" c_origin="4168.5,3146" layerid="11" number="2" net="U1_3" plated ="Y"  id="gge84" locked="0" c_rotation="180" c_width="4.72" c_height="4.72" title="U1_3" c_shape="ELLIPSE" pasteexpansion="0" solderexpansion="0.4"><ellipse c_etype="pad_shell" cx="4168.5" cy="3146" rx="2.36" ry="2.36" layerid="11" stroke-width="0"/><circle c_etype="pad_hole" cx="4168.5" cy="3146" r="1.57" layerid="11" stroke-width="0"/></g><g c_partid="part_pad" c_etype="pinpart" c_origin="4159.5,3071" layerid="11" number="1" net="GND" plated ="Y"  id="gge105" locked="0" c_rotation="270" c_width="4.724" c_height="4.724" title="GND" c_shape="ELLIPSE" pasteexpansion="0" solderexpansion="0.4"><ellipse c_etype="pad_shell" cx="4159.5" cy="3071" rx="2.362" ry="2.362" layerid="11" stroke-width="0"/><circle c_etype="pad_hole" cx="4159.5" cy="3071" r="1.378" layerid="11" stroke-width="0"/></g><g c_partid="part_pad" c_etype="pinpart" c_origin="4159.5,3081" layerid="11" number="2" net="U1_2" plated ="Y"  id="gge110" locked="0" c_rotation="270" c_width="4.724" c_height="4.724" title="U1_2" c_shape="ELLIPSE" pasteexpansion="0" solderexpansion="0.4"><ellipse c_etype="pad_shell" cx="4159.5" cy="3081" rx="2.362" ry="2.362" layerid="11" stroke-width="0"/><circle c_etype="pad_hole" cx="4159.5" cy="3081" r="1.378" layerid="11" stroke-width="0"/></g><g c_partid="part_pad" c_etype="pinpart" c_origin="4096,3109.5" layerid="11" number="1" net="VCC" plated ="Y"  id="gge123" locked="0" c_rotation="270" c_width="7.874" c_height="7.874" title="VCC" c_shape="ELLIPSE" pasteexpansion="0" solderexpansion="0.4"><ellipse c_etype="pad_shell" cx="4096" cy="3109.5" rx="3.937" ry="3.937" layerid="11" stroke-width="0"/><circle c_etype="pad_hole" cx="4096" cy="3109.5" r="2.9528" layerid="11" stroke-width="0"/></g><g c_partid="part_pad" c_etype="pinpart" c_origin="4096,3192" layerid="11" number="2" net="GND" plated ="Y"  id="gge128" locked="0" c_rotation="270" c_width="7.874" c_height="7.874" title="GND" c_shape="ELLIPSE" pasteexpansion="0" solderexpansion="0.4"><ellipse c_etype="pad_shell" cx="4096" cy="3192" rx="3.937" ry="3.937" layerid="11" stroke-width="0"/><circle c_etype="pad_hole" cx="4096" cy="3192" r="2.9528" layerid="11" stroke-width="0"/></g><polyline points="4260 3164.5 4323 3164.5" stroke-width="1"  stroke-linecap="round" fill="none" layerid="3" net="" id="gge7" locked="0" /><polyline points="4323 3164.5 4323 3101.5" stroke-width="1"  stroke-linecap="round" fill="none" layerid="3" net="" id="gge8" locked="0" /><polyline points="4323 3101.5 4260 3101.5" stroke-width="1"  stroke-linecap="round" fill="none" layerid="3" net="" id="gge9" locked="0" /><polyline points="4260 3101.5 4260 3164.5" stroke-width="1"  stroke-linecap="round" fill="none" layerid="3" net="" id="gge10" locked="0" /><polyline points="4214.5 3150.5 4214.5 3150.5 4221.5 3150.5 4221.5 3182.5 4201.5 3182.5 4201.5 3150.5 4208.5 3150.5 4208.5 3150.5" stroke-width="1"  stroke-linecap="round" fill="none" layerid="3" net="" id="gge27" locked="0" /><polyline points="4168.5 3186 4168.5 3176 4173.5 3171" stroke-width="1"  stroke-linecap="round" fill="none" layerid="3" net="" id="gge75" locked="0" /><polyline points="4168.5 3156 4168.5 3166" stroke-width="1"  stroke-linecap="round" fill="none" layerid="3" net="" id="gge76" locked="0" /><polyline points="4171.6 3194.6 4175.6 3194.6 4175.6 3147.4 4171.3 3147.4" stroke-width="1"  stroke-linecap="round" fill="none" layerid="3" net="" id="gge77" locked="0" /><polyline points="4165.7 3147.4 4161.4 3147.4 4161.4 3194.6 4165.4 3194.6" stroke-width="1"  stroke-linecap="round" fill="none" layerid="3" net="" id="gge78" locked="0" /><polyline points="4168 3084.2 4151.1 3084.2" stroke-width="1"  stroke-linecap="round" fill="none" layerid="3" net="S$15" id="gge96" locked="0" /><polyline points="4159.5 3070.9 4159.5 3081" stroke-width="1"  stroke-linecap="round" fill="none" layerid="3" net="S$18" id="gge98" locked="0" /><polyline points="4163.1 3077.9 4155.9 3077.9" stroke-width="1"  stroke-linecap="round" fill="none" layerid="3" net="S$20" id="gge99" locked="0" /><polyline points="4159.6 3077.8 4162.9 3074.5 4156.1 3074.5 4159.4 3077.8 4159.4 3077.9" stroke-width="1"  stroke-linecap="round" fill="none" layerid="3" net="S$22" id="gge100" locked="0" /><polyline points="4164.5 3073 4168.2 3076.7 4168.2 3075.1" stroke-width="1"  stroke-linecap="round" fill="none" layerid="3" net="S$24" id="gge101" locked="0" /><polyline points="4168.2 3076.7 4166.7 3076.7" stroke-width="1"  stroke-linecap="round" fill="none" layerid="3" net="S$26" id="gge102" locked="0" /><polyline points="4163.9 3076.4 4167.6 3080.1 4167.6 3078.5" stroke-width="1"  stroke-linecap="round" fill="none" layerid="3" net="S$24" id="gge103" locked="0" /><polyline points="4167.6 3080.1 4166.1 3080.1" stroke-width="1"  stroke-linecap="round" fill="none" layerid="3" net="S$26" id="gge104" locked="0" /><polyline points="4084.5 3118.5 4084.5 3104 4107 3104 4107.5 3104.2072 4107.5 3118" stroke-width="0.7874"  stroke-linecap="round" fill="none" layerid="3" net="" id="gge122" locked="0" /><g c_partid="part_pcbtext" c_etype="" c_origin="4251.5,3133" c_rotation="90" c_mirror="0" id="gge3" locked="0" layerid="3" c_shapetype="group" display="none"><path c_fontsize="4.5" c_fontfamily="" c_text="BUZZERSMD" d="M 4246.96 3133 L 4251.25 3133 M 4246.96 3133 L 4246.96 3131.16 L 4247.16 3130.55 L 4247.37 3130.34 L 4247.78 3130.14 L 4248.19 3130.14 L 4248.6 3130.34 L 4248.8 3130.55 L 4249 3131.16 M 4249 3133 L 4249 3131.16 L 4249.21 3130.55 L 4249.41 3130.34 L 4249.82 3130.14 L 4250.44 3130.14 L 4250.85 3130.34 L 4251.05 3130.55 L 4251.25 3131.16 L 4251.25 3133 M 4246.96 3128.79 L 4250.03 3128.79 L 4250.64 3128.58 L 4251.05 3128.17 L 4251.25 3127.56 L 4251.25 3127.15 L 4251.05 3126.54 L 4250.64 3126.13 L 4250.03 3125.92 L 4246.96 3125.92 M 4246.96 3121.71 L 4251.25 3124.57 M 4246.96 3124.57 L 4246.96 3121.71 M 4251.25 3124.57 L 4251.25 3121.71 M 4246.96 3117.5 L 4251.25 3120.36 M 4246.96 3120.36 L 4246.96 3117.5 M 4251.25 3120.36 L 4251.25 3117.5 M 4246.96 3116.15 L 4251.25 3116.15 M 4246.96 3116.15 L 4246.96 3113.49 M 4249 3116.15 L 4249 3114.51 M 4251.25 3116.15 L 4251.25 3113.49 M 4246.96 3112.14 L 4251.25 3112.14 M 4246.96 3112.14 L 4246.96 3110.3 L 4247.16 3109.68 L 4247.37 3109.48 L 4247.78 3109.27 L 4248.19 3109.27 L 4248.6 3109.48 L 4248.8 3109.68 L 4249 3110.3 L 4249 3112.14 M 4249 3110.7 L 4251.25 3109.27 M 4247.57 3105.06 L 4247.16 3105.47 L 4246.96 3106.08 L 4246.96 3106.9 L 4247.16 3107.51 L 4247.57 3107.92 L 4247.98 3107.92 L 4248.39 3107.72 L 4248.6 3107.51 L 4248.8 3107.1 L 4249.21 3105.88 L 4249.41 3105.47 L 4249.62 3105.26 L 4250.03 3105.06 L 4250.64 3105.06 L 4251.05 3105.47 L 4251.25 3106.08 L 4251.25 3106.9 L 4251.05 3107.51 L 4250.64 3107.92 M 4246.96 3103.71 L 4251.25 3103.71 M 4246.96 3103.71 L 4251.25 3102.07 M 4246.96 3100.44 L 4251.25 3102.07 M 4246.96 3100.44 L 4251.25 3100.44 M 4246.96 3099.09 L 4251.25 3099.09 M 4246.96 3099.09 L 4246.96 3097.65 L 4247.16 3097.04 L 4247.57 3096.63 L 4247.98 3096.43 L 4248.6 3096.22 L 4249.62 3096.22 L 4250.23 3096.43 L 4250.64 3096.63 L 4251.05 3097.04 L 4251.25 3097.65 L 4251.25 3099.09" fill="none"  stroke-width="0.6" c_note="note_name" /></g><g c_partid="part_pcbtext" c_etype="" c_origin="4258.5,3133" c_rotation="90" c_mirror="0" id="gge5" locked="0" layerid="3" c_shapetype="group" ><path c_fontsize="4.5" c_fontfamily="" c_text="SG1" d="M 4254.57 3130.14 L 4254.16 3130.55 L 4253.96 3131.16 L 4253.96 3131.98 L 4254.16 3132.59 L 4254.57 3133 L 4254.98 3133 L 4255.39 3132.8 L 4255.6 3132.59 L 4255.8 3132.18 L 4256.21 3130.95 L 4256.41 3130.55 L 4256.62 3130.34 L 4257.03 3130.14 L 4257.64 3130.14 L 4258.05 3130.55 L 4258.25 3131.16 L 4258.25 3131.98 L 4258.05 3132.59 L 4257.64 3133 M 4254.98 3125.72 L 4254.57 3125.92 L 4254.16 3126.33 L 4253.96 3126.74 L 4253.96 3127.56 L 4254.16 3127.97 L 4254.57 3128.38 L 4254.98 3128.58 L 4255.6 3128.79 L 4256.62 3128.79 L 4257.23 3128.58 L 4257.64 3128.38 L 4258.05 3127.97 L 4258.25 3127.56 L 4258.25 3126.74 L 4258.05 3126.33 L 4257.64 3125.92 L 4257.23 3125.72 L 4256.62 3125.72 M 4256.62 3126.74 L 4256.62 3125.72 M 4254.78 3124.37 L 4254.57 3123.96 L 4253.96 3123.35 L 4258.25 3123.35" fill="none"  stroke-width="0.6" c_note="note_pre" /></g><g c_partid="part_pcbtext" c_etype="" c_origin="4211.5,3139.5" c_rotation="0" c_mirror="0" id="gge23" locked="0" layerid="3" c_shapetype="group" display="none"><path c_fontsize="4.5" c_fontfamily="" c_text="ATTINY85 (THT)" d="M 4213.14 3134.9598 L 4211.5 3139.2498 M 4213.14 3134.9598 L 4214.77 3139.2498 M 4212.11 3137.8198 L 4214.16 3137.8198 M 4217.55 3134.9598 L 4217.55 3139.2498 M 4216.12 3134.9598 L 4218.99 3134.9598 M 4221.77 3134.9598 L 4221.77 3139.2498 M 4220.34 3134.9598 L 4223.2 3134.9598 M 4224.55 3134.9598 L 4224.55 3139.2498 M 4225.9 3134.9598 L 4225.9 3139.2498 M 4225.9 3134.9598 L 4228.76 3139.2498 M 4228.76 3134.9598 L 4228.76 3139.2498 M 4230.11 3134.9598 L 4231.75 3136.9998 L 4231.75 3139.2498 M 4233.39 3134.9598 L 4231.75 3136.9998 M 4235.76 3134.9598 L 4235.15 3135.1598 L 4234.94 3135.5698 L 4234.94 3135.9798 L 4235.15 3136.3898 L 4235.55 3136.5998 L 4236.37 3136.7998 L 4236.99 3136.9998 L 4237.4 3137.4098 L 4237.6 3137.8198 L 4237.6 3138.4398 L 4237.4 3138.8498 L 4237.19 3139.0498 L 4236.58 3139.2498 L 4235.76 3139.2498 L 4235.15 3139.0498 L 4234.94 3138.8498 L 4234.74 3138.4398 L 4234.74 3137.8198 L 4234.94 3137.4098 L 4235.35 3136.9998 L 4235.96 3136.7998 L 4236.78 3136.5998 L 4237.19 3136.3898 L 4237.4 3135.9798 L 4237.4 3135.5698 L 4237.19 3135.1598 L 4236.58 3134.9598 L 4235.76 3134.9598 M 4241.4 3134.9598 L 4239.36 3134.9598 L 4239.15 3136.7998 L 4239.36 3136.5998 L 4239.97 3136.3898 L 4240.59 3136.3898 L 4241.2 3136.5998 L 4241.61 3136.9998 L 4241.81 3137.6198 L 4241.81 3138.0298 L 4241.61 3138.6398 L 4241.2 3139.0498 L 4240.59 3139.2498 L 4239.97 3139.2498 L 4239.36 3139.0498 L 4239.15 3138.8498 L 4238.95 3138.4398 M 4247.75 3134.1398 L 4247.34 3134.5498 L 4246.93 3135.1598 L 4246.52 3135.9798 L 4246.31 3136.9998 L 4246.31 3137.8198 L 4246.52 3138.8498 L 4246.93 3139.6598 L 4247.34 3140.2798 L 4247.75 3140.6898 M 4250.53 3134.9598 L 4250.53 3139.2498 M 4249.1 3134.9598 L 4251.96 3134.9598 M 4253.31 3134.9598 L 4253.31 3139.2498 M 4256.17 3134.9598 L 4256.17 3139.2498 M 4253.31 3136.9998 L 4256.17 3136.9998 M 4258.95 3134.9598 L 4258.95 3139.2498 M 4257.52 3134.9598 L 4260.39 3134.9598 M 4261.74 3134.1398 L 4262.15 3134.5498 L 4262.55 3135.1598 L 4262.96 3135.9798 L 4263.17 3136.9998 L 4263.17 3137.8198 L 4262.96 3138.8498 L 4262.55 3139.6598 L 4262.15 3140.2798 L 4261.74 3140.6898" fill="none"  stroke-width="0.6" c_note="note_name" /></g><g c_partid="part_pcbtext" c_etype="" c_origin="4211.5,3146.5" c_rotation="0" c_mirror="0" id="gge25" locked="0" layerid="3" c_shapetype="group" ><path c_fontsize="4.5" c_fontfamily="" c_text="U1" d="M 4211.5 3141.96 L 4211.5 3145.03 L 4211.7 3145.64 L 4212.11 3146.05 L 4212.73 3146.25 L 4213.14 3146.25 L 4213.75 3146.05 L 4214.16 3145.64 L 4214.36 3145.03 L 4214.36 3141.96 M 4215.71 3142.78 L 4216.12 3142.57 L 4216.74 3141.96 L 4216.74 3146.25" fill="none"  stroke-width="0.6" c_note="note_pre" /></g><g c_partid="part_pcbtext" c_etype="" c_origin="4189.29,3200.19" c_rotation="90" c_mirror="0" id="gge71" locked="0" layerid="3" c_shapetype="group" display="none"><path c_fontsize="4.5" c_fontfamily="" c_text="SW-200D" d="M 4185.36 3197.3299 L 4184.95 3197.7399 L 4184.75 3198.3499 L 4184.75 3199.1699 L 4184.95 3199.7799 L 4185.36 3200.1899 L 4185.77 3200.1899 L 4186.18 3199.9899 L 4186.39 3199.7799 L 4186.59 3199.3699 L 4187 3198.1399 L 4187.2 3197.7399 L 4187.41 3197.5299 L 4187.82 3197.3299 L 4188.43 3197.3299 L 4188.84 3197.7399 L 4189.04 3198.3499 L 4189.04 3199.1699 L 4188.84 3199.7799 L 4188.43 3200.1899 M 4184.75 3195.9799 L 4189.04 3194.9499 M 4184.75 3193.9299 L 4189.04 3194.9499 M 4184.75 3193.9299 L 4189.04 3192.9099 M 4184.75 3191.8899 L 4189.04 3192.9099 M 4187.2 3190.5399 L 4187.2 3186.8499 M 4185.77 3185.2999 L 4185.57 3185.2999 L 4185.16 3185.0899 L 4184.95 3184.8899 L 4184.75 3184.4799 L 4184.75 3183.6599 L 4184.95 3183.2499 L 4185.16 3183.0499 L 4185.57 3182.8399 L 4185.98 3182.8399 L 4186.39 3183.0499 L 4187 3183.4599 L 4189.04 3185.4999 L 4189.04 3182.6399 M 4184.75 3180.0599 L 4184.95 3180.6799 L 4185.57 3181.0899 L 4186.59 3181.2899 L 4187.2 3181.2899 L 4188.23 3181.0899 L 4188.84 3180.6799 L 4189.04 3180.0599 L 4189.04 3179.6499 L 4188.84 3179.0399 L 4188.23 3178.6299 L 4187.2 3178.4299 L 4186.59 3178.4299 L 4185.57 3178.6299 L 4184.95 3179.0399 L 4184.75 3179.6499 L 4184.75 3180.0599 M 4184.75 3175.8499 L 4184.95 3176.4599 L 4185.57 3176.8699 L 4186.59 3177.0799 L 4187.2 3177.0799 L 4188.23 3176.8699 L 4188.84 3176.4599 L 4189.04 3175.8499 L 4189.04 3175.4399 L 4188.84 3174.8299 L 4188.23 3174.4199 L 4187.2 3174.2099 L 4186.59 3174.2099 L 4185.57 3174.4199 L 4184.95 3174.8299 L 4184.75 3175.4399 L 4184.75 3175.8499 M 4184.75 3172.8599 L 4189.04 3172.8599 M 4184.75 3172.8599 L 4184.75 3171.4299 L 4184.95 3170.8199 L 4185.36 3170.4099 L 4185.77 3170.1999 L 4186.39 3169.9999 L 4187.41 3169.9999 L 4188.02 3170.1999 L 4188.43 3170.4099 L 4188.84 3170.8199 L 4189.04 3171.4299 L 4189.04 3172.8599" fill="none"  stroke-width="0.6" c_note="note_name" /></g><g c_partid="part_pcbtext" c_etype="" c_origin="4177.5,3170" c_rotation="270" c_mirror="0" id="gge73" locked="0" layerid="3" c_shapetype="group" ><path c_fontsize="4.5" c_fontfamily="" c_text="SW1" d="M 4181.43 3172.86 L 4181.84 3172.45 L 4182.04 3171.84 L 4182.04 3171.02 L 4181.84 3170.41 L 4181.43 3170 L 4181.02 3170 L 4180.61 3170.2 L 4180.4 3170.41 L 4180.2 3170.82 L 4179.79 3172.05 L 4179.59 3172.45 L 4179.38 3172.66 L 4178.97 3172.86 L 4178.36 3172.86 L 4177.95 3172.45 L 4177.75 3171.84 L 4177.75 3171.02 L 4177.95 3170.41 L 4178.36 3170 M 4182.04 3174.21 L 4177.75 3175.24 M 4182.04 3176.26 L 4177.75 3175.24 M 4182.04 3176.26 L 4177.75 3177.28 M 4182.04 3178.3 L 4177.75 3177.28 M 4181.22 3179.65 L 4181.43 3180.06 L 4182.04 3180.68 L 4177.75 3180.68" fill="none"  stroke-width="0.6" c_note="note_pre" /></g><g c_partid="part_pcbtext" c_etype="" c_origin="4188.67,3119.64" c_rotation="90" c_mirror="0" id="gge91" locked="0" layerid="3" c_shapetype="group" display="none"><path c_fontsize="4.5" c_fontfamily="" c_text="5MM LED (THT)" d="M 4184.1302 3117.1901 L 4184.1302 3119.2301 L 4185.9702 3119.4401 L 4185.7702 3119.2301 L 4185.5602 3118.6201 L 4185.5602 3118.0001 L 4185.7702 3117.3901 L 4186.1702 3116.9801 L 4186.7902 3116.7801 L 4187.2002 3116.7801 L 4187.8102 3116.9801 L 4188.2202 3117.3901 L 4188.4202 3118.0001 L 4188.4202 3118.6201 L 4188.2202 3119.2301 L 4188.0202 3119.4401 L 4187.6102 3119.6401 M 4184.1302 3115.4301 L 4188.4202 3115.4301 M 4184.1302 3115.4301 L 4188.4202 3113.7901 M 4184.1302 3112.1501 L 4188.4202 3113.7901 M 4184.1302 3112.1501 L 4188.4202 3112.1501 M 4184.1302 3110.8001 L 4188.4202 3110.8001 M 4184.1302 3110.8001 L 4188.4202 3109.1701 M 4184.1302 3107.5301 L 4188.4202 3109.1701 M 4184.1302 3107.5301 L 4188.4202 3107.5301 M 4184.1302 3103.0301 L 4188.4202 3103.0301 M 4188.4202 3103.0301 L 4188.4202 3100.5801 M 4184.1302 3099.2301 L 4188.4202 3099.2301 M 4184.1302 3099.2301 L 4184.1302 3096.5701 M 4186.1702 3099.2301 L 4186.1702 3097.5901 M 4188.4202 3099.2301 L 4188.4202 3096.5701 M 4184.1302 3095.2201 L 4188.4202 3095.2201 M 4184.1302 3095.2201 L 4184.1302 3093.7901 L 4184.3302 3093.1701 L 4184.7402 3092.7601 L 4185.1502 3092.5601 L 4185.7702 3092.3501 L 4186.7902 3092.3501 L 4187.4002 3092.5601 L 4187.8102 3092.7601 L 4188.2202 3093.1701 L 4188.4202 3093.7901 L 4188.4202 3095.2201 M 4183.3102 3086.4201 L 4183.7202 3086.8301 L 4184.3302 3087.2401 L 4185.1502 3087.6501 L 4186.1702 3087.8501 L 4186.9902 3087.8501 L 4188.0202 3087.6501 L 4188.8302 3087.2401 L 4189.4502 3086.8301 L 4189.8602 3086.4201 M 4184.1302 3083.6401 L 4188.4202 3083.6401 M 4184.1302 3085.0701 L 4184.1302 3082.2101 M 4184.1302 3080.8601 L 4188.4202 3080.8601 M 4184.1302 3077.9901 L 4188.4202 3077.9901 M 4186.1702 3080.8601 L 4186.1702 3077.9901 M 4184.1302 3075.2101 L 4188.4202 3075.2101 M 4184.1302 3076.6401 L 4184.1302 3073.7801 M 4183.3102 3072.4301 L 4183.7202 3072.0201 L 4184.3302 3071.6101 L 4185.1502 3071.2001 L 4186.1702 3071.0001 L 4186.9902 3071.0001 L 4188.0202 3071.2001 L 4188.8302 3071.6101 L 4189.4502 3072.0201 L 4189.8602 3072.4301" fill="none"  stroke-width="0.6" c_note="note_name" /></g><g c_partid="part_pcbtext" c_etype="" c_origin="4177.5,3071" c_rotation="270" c_mirror="0" id="gge93" locked="0" layerid="3" c_shapetype="group" ><path c_fontsize="4.5" c_fontfamily="" c_text="LED1" d="M 4182.04 3071 L 4177.75 3071 M 4177.75 3071 L 4177.75 3073.45 M 4182.04 3074.8 L 4177.75 3074.8 M 4182.04 3074.8 L 4182.04 3077.46 M 4180 3074.8 L 4180 3076.44 M 4177.75 3074.8 L 4177.75 3077.46 M 4182.04 3078.81 L 4177.75 3078.81 M 4182.04 3078.81 L 4182.04 3080.25 L 4181.84 3080.86 L 4181.43 3081.27 L 4181.02 3081.47 L 4180.4 3081.68 L 4179.38 3081.68 L 4178.77 3081.47 L 4178.36 3081.27 L 4177.95 3080.86 L 4177.75 3080.25 L 4177.75 3078.81 M 4181.22 3083.03 L 4181.43 3083.44 L 4182.04 3084.05 L 4177.75 3084.05" fill="none"  stroke-width="0.6" c_note="note_pre" /></g><g c_partid="part_pcbtext" c_etype="" c_origin="4152.17,3260.23" c_rotation="90" c_mirror="0" id="gge117" locked="0" layerid="3" c_shapetype="group" display="none"><path c_fontsize="4.5" c_fontfamily="" c_text="CR2032 BATTERY HOLDER (THT)" d="M 4148.6502 3257.16 L 4148.2402 3257.37 L 4147.8302 3257.78 L 4147.6302 3258.18 L 4147.6302 3259 L 4147.8302 3259.41 L 4148.2402 3259.82 L 4148.6502 3260.03 L 4149.2702 3260.23 L 4150.2902 3260.23 L 4150.9002 3260.03 L 4151.3102 3259.82 L 4151.7202 3259.41 L 4151.9202 3259 L 4151.9202 3258.18 L 4151.7202 3257.78 L 4151.3102 3257.37 L 4150.9002 3257.16 M 4147.6302 3255.81 L 4151.9202 3255.81 M 4147.6302 3255.81 L 4147.6302 3253.97 L 4147.8302 3253.36 L 4148.0402 3253.15 L 4148.4502 3252.95 L 4148.8602 3252.95 L 4149.2702 3253.15 L 4149.4702 3253.36 L 4149.6702 3253.97 L 4149.6702 3255.81 M 4149.6702 3254.38 L 4151.9202 3252.95 M 4148.6502 3251.39 L 4148.4502 3251.39 L 4148.0402 3251.19 L 4147.8302 3250.98 L 4147.6302 3250.58 L 4147.6302 3249.76 L 4147.8302 3249.35 L 4148.0402 3249.14 L 4148.4502 3248.94 L 4148.8602 3248.94 L 4149.2702 3249.14 L 4149.8802 3249.55 L 4151.9202 3251.6 L 4151.9202 3248.73 M 4147.6302 3246.16 L 4147.8302 3246.77 L 4148.4502 3247.18 L 4149.4702 3247.38 L 4150.0802 3247.38 L 4151.1102 3247.18 L 4151.7202 3246.77 L 4151.9202 3246.16 L 4151.9202 3245.75 L 4151.7202 3245.13 L 4151.1102 3244.73 L 4150.0802 3244.52 L 4149.4702 3244.52 L 4148.4502 3244.73 L 4147.8302 3245.13 L 4147.6302 3245.75 L 4147.6302 3246.16 M 4147.6302 3242.76 L 4147.6302 3240.51 L 4149.2702 3241.74 L 4149.2702 3241.13 L 4149.4702 3240.72 L 4149.6702 3240.51 L 4150.2902 3240.31 L 4150.7002 3240.31 L 4151.3102 3240.51 L 4151.7202 3240.92 L 4151.9202 3241.53 L 4151.9202 3242.15 L 4151.7202 3242.76 L 4151.5202 3242.97 L 4151.1102 3243.17 M 4148.6502 3238.75 L 4148.4502 3238.75 L 4148.0402 3238.55 L 4147.8302 3238.34 L 4147.6302 3237.93 L 4147.6302 3237.12 L 4147.8302 3236.71 L 4148.0402 3236.5 L 4148.4502 3236.3 L 4148.8602 3236.3 L 4149.2702 3236.5 L 4149.8802 3236.91 L 4151.9202 3238.96 L 4151.9202 3236.09 M 4147.6302 3231.59 L 4151.9202 3231.59 M 4147.6302 3231.59 L 4147.6302 3229.75 L 4147.8302 3229.14 L 4148.0402 3228.93 L 4148.4502 3228.73 L 4148.8602 3228.73 L 4149.2702 3228.93 L 4149.4702 3229.14 L 4149.6702 3229.75 M 4149.6702 3231.59 L 4149.6702 3229.75 L 4149.8802 3229.14 L 4150.0802 3228.93 L 4150.4902 3228.73 L 4151.1102 3228.73 L 4151.5202 3228.93 L 4151.7202 3229.14 L 4151.9202 3229.75 L 4151.9202 3231.59 M 4147.6302 3225.74 L 4151.9202 3227.38 M 4147.6302 3225.74 L 4151.9202 3224.11 M 4150.4902 3226.77 L 4150.4902 3224.72 M 4147.6302 3221.33 L 4151.9202 3221.33 M 4147.6302 3222.76 L 4147.6302 3219.89 M 4147.6302 3217.11 L 4151.9202 3217.11 M 4147.6302 3218.54 L 4147.6302 3215.68 M 4147.6302 3214.33 L 4151.9202 3214.33 M 4147.6302 3214.33 L 4147.6302 3211.67 M 4149.6702 3214.33 L 4149.6702 3212.69 M 4151.9202 3214.33 L 4151.9202 3211.67 M 4147.6302 3210.32 L 4151.9202 3210.32 M 4147.6302 3210.32 L 4147.6302 3208.48 L 4147.8302 3207.87 L 4148.0402 3207.66 L 4148.4502 3207.46 L 4148.8602 3207.46 L 4149.2702 3207.66 L 4149.4702 3207.87 L 4149.6702 3208.48 L 4149.6702 3210.32 M 4149.6702 3208.89 L 4151.9202 3207.46 M 4147.6302 3206.11 L 4149.6702 3204.47 L 4151.9202 3204.47 M 4147.6302 3202.83 L 4149.6702 3204.47 M 4147.6302 3198.33 L 4151.9202 3198.33 M 4147.6302 3195.47 L 4151.9202 3195.47 M 4149.6702 3198.33 L 4149.6702 3195.47 M 4147.6302 3192.89 L 4147.8302 3193.3 L 4148.2402 3193.71 L 4148.6502 3193.92 L 4149.2702 3194.12 L 4150.2902 3194.12 L 4150.9002 3193.92 L 4151.3102 3193.71 L 4151.7202 3193.3 L 4151.9202 3192.89 L 4151.9202 3192.08 L 4151.7202 3191.67 L 4151.3102 3191.26 L 4150.9002 3191.05 L 4150.2902 3190.85 L 4149.2702 3190.85 L 4148.6502 3191.05 L 4148.2402 3191.26 L 4147.8302 3191.67 L 4147.6302 3192.08 L 4147.6302 3192.89 M 4147.6302 3189.5 L 4151.9202 3189.5 M 4151.9202 3189.5 L 4151.9202 3187.04 M 4147.6302 3185.69 L 4151.9202 3185.69 M 4147.6302 3185.69 L 4147.6302 3184.26 L 4147.8302 3183.65 L 4148.2402 3183.24 L 4148.6502 3183.03 L 4149.2702 3182.83 L 4150.2902 3182.83 L 4150.9002 3183.03 L 4151.3102 3183.24 L 4151.7202 3183.65 L 4151.9202 3184.26 L 4151.9202 3185.69 M 4147.6302 3181.48 L 4151.9202 3181.48 M 4147.6302 3181.48 L 4147.6302 3178.82 M 4149.6702 3181.48 L 4149.6702 3179.84 M 4151.9202 3181.48 L 4151.9202 3178.82 M 4147.6302 3177.47 L 4151.9202 3177.47 M 4147.6302 3177.47 L 4147.6302 3175.63 L 4147.8302 3175.02 L 4148.0402 3174.81 L 4148.4502 3174.61 L 4148.8602 3174.61 L 4149.2702 3174.81 L 4149.4702 3175.02 L 4149.6702 3175.63 L 4149.6702 3177.47 M 4149.6702 3176.04 L 4151.9202 3174.61 M 4146.8102 3168.68 L 4147.2202 3169.08 L 4147.8302 3169.49 L 4148.6502 3169.9 L 4149.6702 3170.11 L 4150.4902 3170.11 L 4151.5202 3169.9 L 4152.3302 3169.49 L 4152.9502 3169.08 L 4153.3602 3168.68 M 4147.6302 3165.89 L 4151.9202 3165.89 M 4147.6302 3167.33 L 4147.6302 3164.46 M 4147.6302 3163.11 L 4151.9202 3163.11 M 4147.6302 3160.25 L 4151.9202 3160.25 M 4149.6702 3163.11 L 4149.6702 3160.25 M 4147.6302 3157.47 L 4151.9202 3157.47 M 4147.6302 3158.9 L 4147.6302 3156.03 M 4146.8102 3154.68 L 4147.2202 3154.28 L 4147.8302 3153.87 L 4148.6502 3153.46 L 4149.6702 3153.25 L 4150.4902 3153.25 L 4151.5202 3153.46 L 4152.3302 3153.87 L 4152.9502 3154.28 L 4153.3602 3154.68" fill="none"  stroke-width="0.6" c_note="note_name" /></g><g c_partid="part_pcbtext" c_etype="" c_origin="4141,3153.25" c_rotation="270" c_mirror="0" id="gge119" locked="0" layerid="3" c_shapetype="group" ><path c_fontsize="4.5" c_fontfamily="" c_text="B1" d="M 4145.54 3153.25 L 4141.25 3153.25 M 4145.54 3153.25 L 4145.54 3155.09 L 4145.34 3155.7 L 4145.13 3155.91 L 4144.72 3156.11 L 4144.31 3156.11 L 4143.9 3155.91 L 4143.7 3155.7 L 4143.5 3155.09 M 4143.5 3153.25 L 4143.5 3155.09 L 4143.29 3155.7 L 4143.09 3155.91 L 4142.68 3156.11 L 4142.06 3156.11 L 4141.65 3155.91 L 4141.45 3155.7 L 4141.25 3155.09 L 4141.25 3153.25 M 4144.72 3157.46 L 4144.93 3157.87 L 4145.54 3158.49 L 4141.25 3158.49" fill="none"  stroke-width="0.6" c_note="note_pre" /></g><path d="M 4208.5 3150.5 A 3 3 0 1 0 4214.5 3150.5" locked="0"  fill="none" stroke-width="1" c_helper_type="arc2" net="" layerid="3" id="gge28" /><path d="M 4151 3084.2 A 11.887 11.887 0 1 1 4168 3084.2" locked="0"  fill="none" stroke-width="1" c_helper_type="arc2" net="" layerid="3" id="gge95" /><path d="M 4153 3084.1 A 10.457 10.457 0 1 1 4166 3084.1" locked="0"  fill="none" stroke-width="1" c_helper_type="arc2" net="" layerid="3" id="gge97" /><path d="M 4096.25 3203.5 A 43.25072 43.25072 0 1 0 4095.48 3203.49" locked="0"  fill="none" stroke-width="1" c_helper_type="arc2" net="" layerid="3" id="gge121" /><polyline points="4050 3050 4326 3050 4326 3234 4050 3234 4050 3050" stroke-width="1"  stroke-linecap="round" fill="none" layerid="10" net="" id="gge133" locked="0" /></svg>