<svg xmlns="http://www.w3.org/2000/svg" xmlns:xlink="http://www.w3.org/1999/xlink" width="56.261mm" height="47.498mm" viewBox="4048 3040 221.5 187"><title></title><style type="text/css">
*[layerid="1"] {stroke:#000000;fill:#000000;}
*[layerid="2"] {stroke:#000000;fill:#000000;}
*[layerid="3"] {stroke:#000000;fill:#000000;}
*[layerid="4"] {stroke:#000000;fill:#000000;}
*[layerid="5"] {stroke:#000000;fill:#000000;}
*[layerid="6"] {stroke:#000000;fill:#000000;}
*[layerid="7"] {stroke:#000000;fill:#000000;}
*[layerid="8"] {stroke:#000000;fill:#000000;}
*[layerid="9"] {stroke:#000000;fill:#000000;}
*[layerid="10"] {stroke:#000000;fill:#000000;}
*[layerid="11"] {stroke:#000000;fill:#000000;}
*[layerid="12"] {stroke:#000000;fill:#000000;}
*[layerid="13"] {stroke:#000000;fill:#000000;}
*[layerid="14"] {stroke:#000000;fill:#000000;}
*[layerid="15"] {stroke:#000000;fill:#000000;}
*[layerid="19"] {stroke:#000000;fill:#000000;}
*[layerid="21"] {stroke:#000000;fill:#000000;}
*[layerid="22"] {stroke:#000000;fill:#000000;}
*[layerid="23"] {stroke:#000000;fill:#000000;}
*[layerid="24"] {stroke:#000000;fill:#000000;}
*[layerid="25"] {stroke:#000000;fill:#000000;}
*[layerid="26"] {stroke:#000000;fill:#000000;}
*[layerid="27"] {stroke:#000000;fill:#000000;}
*[layerid="28"] {stroke:#000000;fill:#000000;}
*[layerid="29"] {stroke:#000000;fill:#000000;}
*[layerid="30"] {stroke:#000000;fill:#000000;}
*[layerid="31"] {stroke:#000000;fill:#000000;}
*[layerid="32"] {stroke:#000000;fill:#000000;}
*[layerid="33"] {stroke:#000000;fill:#000000;}
*[layerid="34"] {stroke:#000000;fill:#000000;}
*[layerid="35"] {stroke:#000000;fill:#000000;}
*[layerid="36"] {stroke:#000000;fill:#000000;}
*[layerid="37"] {stroke:#000000;fill:#000000;}
*[layerid="38"] {stroke:#000000;fill:#000000;}
*[layerid="39"] {stroke:#000000;fill:#000000;}
*[layerid="40"] {stroke:#000000;fill:#000000;}
*[layerid="41"] {stroke:#000000;fill:#000000;}
*[layerid="42"] {stroke:#000000;fill:#000000;}
*[layerid="43"] {stroke:#000000;fill:#000000;}
*[layerid="44"] {stroke:#000000;fill:#000000;}
*[layerid="45"] {stroke:#000000;fill:#000000;}
*[layerid="46"] {stroke:#000000;fill:#000000;}
*[layerid="47"] {stroke:#000000;fill:#000000;}
*[layerid="48"] {stroke:#000000;fill:#000000;}
*[layerid="49"] {stroke:#000000;fill:#000000;}
*[layerid="50"] {stroke:#000000;fill:#000000;}
*[layerid="51"] {stroke:#000000;fill:#000000;}
*[layerid="52"] {stroke:#000000;fill:#000000;}
*[layerid="99"] {stroke:#000000;fill:#000000;}
*[layerid="100"] {stroke:#000000;fill:#000000;}
*[layerid="101"] {stroke:#000000;fill:#000000;}
*[layerid="Hole"] {stroke:#000000;fill:#000000;}
*[layerid="DRCError"] {stroke:#000000;fill:#000000;}
*[fill="none"] {fill: none;}
*[stroke="none"] {stroke: none;}
path, polyline, polygon, line {stroke-linecap:round;}
g[c_partid="part_pad"][layerid="1"] ellipse:not([c_etype="pad_outer"]) {fill:#000000;}
g[c_partid="part_pad"][layerid="1"] polygon:not([c_etype="pad_outer"]) {fill:#000000;}
g[c_partid="part_pad"][layerid="1"] polyline:not([c_etype="pad_outer"]) {stroke:#000000;}
g[c_partid="part_pad"][layerid="2"] ellipse:not([c_etype="pad_outer"]) {fill:#000000;}
g[c_partid="part_pad"][layerid="2"] polygon:not([c_etype="pad_outer"]) {fill:#000000;}
g[c_partid="part_pad"][layerid="2"] polyline:not([c_etype="pad_outer"]) {stroke:#000000;}
g[c_partid="part_pad"][layerid="11"] ellipse:not([c_etype="pad_outer"]) {fill:#000000;}
g[c_partid="part_pad"][layerid="11"] polygon:not([c_etype="pad_outer"]) {fill:#000000;}
g[c_partid="part_pad"][layerid="11"] polyline:not([c_etype="pad_outer"]) {stroke:#000000;}
g[c_partid="part_pad"][layerid="11"] circle {fill:#FFFFFF;}
g[c_partid="part_pad"][layerid="11"] > polyline:nth-of-type(2) {stroke:#FFFFFF;}
g[c_partid="part_pad"][layerid="11"][c_shape="ELLIPSE"]  polyline:nth-last-of-type(1) {stroke:#FFFFFF;}
g[c_partid="part_pad"][layerid="11"][c_shape="RECT"]  polyline:nth-last-of-type(1) {stroke:#FFFFFF;}
g[c_partid="part_pad"][layerid="11"][c_shape="POLYGON"]  polyline:nth-last-of-type(1) {stroke:#FFFFFF;}
g[c_partid="part_via"] > * + circle, #gCurParts g[c_partid="part_via"] > * + circle {fill:#FFFFFF;}
g[c_partid="part_pad"] > polygon[c_etype="pad_outer"], #gCurParts g[c_partid="part_pad"] > polygon[c_etype="pad_outer"] {stroke-linejoin: miter;stroke-miterlimit: 100;}
g[c_partid="part_hole"] > circle {fill: #FFFFFF;}path, polyline, polygon {stroke-linejoin:round;}
rect, circle, ellipse, polyline, line, polygon, path {shape-rendering:crispEdges;}
</style>
<rect x="4048" y="3040" width="221.5" height="187" fill="#FFFFFF" stroke="none"/><polyline points="4241.5 3089.35 4248.35 3089.35 4253 3094 4253 3128.5 4235.5 3146" stroke-width="3"  stroke-linecap="round" fill="none" layerid="1" net="R3_2" id="gge230" locked="0" /><polyline points="4160 3071.5 4160 3056.5 4211 3060 4241.5 3089.35" stroke-width="1"  stroke-linecap="round" fill="none" layerid="1" net="R3_2" id="gge213" locked="0" /><polyline points="4225.5 3116 4225.5 3125 4219.5 3131 4195.5 3134.5 4188.35 3194.65 4135 3194.65" stroke-width="1"  stroke-linecap="round" fill="none" layerid="1" net="R1_1" id="gge212" locked="0" /><polyline points="4109 3092.5 4130 3071.5 4160 3071.5" stroke-width="1"  stroke-linecap="round" fill="none" layerid="1" net="R3_2" id="gge198" locked="0" /><polyline points="4205.5 3116 4193.5 3104 4193.5 3074" stroke-width="1"  stroke-linecap="round" fill="none" layerid="1" net="R2_1" id="gge200" locked="0" /><polyline points="4203.5 3074 4225.149 3095.649 4241.5 3095.649" stroke-width="1"  stroke-linecap="round" fill="none" layerid="1" net="R3_1" id="gge201" locked="0" /><polyline points="4165 3159 4165 3132.5 4173 3124.5 4207 3124.5 4215.5 3116 4205.5 3116" stroke-width="1"  stroke-linecap="round" fill="none" layerid="1" net="R2_1" id="gge204" locked="0" /><polyline points="4241.5 3095.649 4235.851 3095.649 4215.5 3116" stroke-width="1"  stroke-linecap="round" fill="none" layerid="1" net="R3_1" id="gge202" locked="0" /><polyline points="4168.5 3071.5 4168.5 3111.5 4148.5 3131.5 4148.5 3173.5 4135 3187 4135 3188.3506" stroke-width="1"  stroke-linecap="round" fill="none" layerid="1" net="R1_2" id="gge211" locked="0" /><g c_partid="part_pad" c_etype="pinpart" c_origin="4241.5,3089.35" layerid="1" number="2" net="R3_2" plated ="Y"  id="gge107" locked="0" c_rotation="90" c_width="3.937" c_height="4.3307" title="R3_2" c_shape="RECT" pasteexpansion="0" solderexpansion="0.4"><polygon  c_etype="pad_shell" points="4239.3346 3091.3186 4239.3346 3087.3816 4243.6654 3087.3816 4243.6654 3091.3186" layerid="1" stroke-width="0" /><circle c_etype="pad_hole" cx="4241.5" cy="3089.3505" r="0" layerid="1" stroke-width="0"/></g><g c_partid="part_pad" c_etype="pinpart" c_origin="4241.5,3095.649" layerid="1" number="1" net="R3_1" plated ="Y"  id="gge112" locked="0" c_rotation="90" c_width="3.937" c_height="4.3307" title="R3_1" c_shape="RECT" pasteexpansion="0" solderexpansion="0.4"><polygon  c_etype="pad_shell" points="4239.3346 3097.6178 4239.3346 3093.6808 4243.6654 3093.6808 4243.6654 3097.6178" layerid="1" stroke-width="0" /><circle c_etype="pad_hole" cx="4241.5" cy="3095.6493" r="0" layerid="1" stroke-width="0"/></g><g c_partid="part_pad" c_etype="pinpart" c_origin="4135,3188.35" layerid="1" number="2" net="R1_2" plated ="Y"  id="gge131" locked="0" c_rotation="90" c_width="3.937" c_height="4.3307" title="R1_2" c_shape="RECT" pasteexpansion="0" solderexpansion="0.4"><polygon  c_etype="pad_shell" points="4132.8346 3190.3186 4132.8346 3186.3816 4137.1654 3186.3816 4137.1654 3190.3186" layerid="1" stroke-width="0" /><circle c_etype="pad_hole" cx="4135" cy="3188.3505" r="0" layerid="1" stroke-width="0"/></g><g c_partid="part_pad" c_etype="pinpart" c_origin="4135,3194.649" layerid="1" number="1" net="R1_1" plated ="Y"  id="gge136" locked="0" c_rotation="90" c_width="3.937" c_height="4.3307" title="R1_1" c_shape="RECT" pasteexpansion="0" solderexpansion="0.4"><polygon  c_etype="pad_shell" points="4132.8346 3196.6178 4132.8346 3192.6808 4137.1654 3192.6808 4137.1654 3196.6178" layerid="1" stroke-width="0" /><circle c_etype="pad_hole" cx="4135" cy="3194.6493" r="0" layerid="1" stroke-width="0"/></g><g c_partid="part_pad" c_etype="pinpart" c_origin="4165,3159" layerid="11" number="1" net="R2_1" plated ="Y"  id="gge18" locked="0" c_rotation="0" c_width="9.4488" c_height="9.4488" title="R2_1" c_shape="ELLIPSE" pasteexpansion="0" solderexpansion="0.4"><ellipse c_etype="pad_shell" cx="4165" cy="3159" rx="4.7244" ry="4.7244" layerid="11" stroke-width="0"/><circle c_etype="pad_hole" cx="4165" cy="3159" r="3.1496" layerid="11" stroke-width="0"/></g><g c_partid="part_pad" c_etype="pinpart" c_origin="4185,3159" layerid="11" number="2" net="M1_2" plated ="Y"  id="gge23" locked="0" c_rotation="0" c_width="9.4488" c_height="9.4488" title="M1_2" c_shape="ELLIPSE" pasteexpansion="0" solderexpansion="0.4"><ellipse c_etype="pad_shell" cx="4185" cy="3159" rx="4.7244" ry="4.7244" layerid="11" stroke-width="0"/><circle c_etype="pad_hole" cx="4185" cy="3159" r="3.1496" layerid="11" stroke-width="0"/></g><g c_partid="part_pad" c_etype="pinpart" c_origin="4203.5,3074" layerid="11" number="2" net="R3_1" plated ="Y"  id="gge35" locked="0" c_rotation="0" c_width="4.07" c_height="4.07" title="R3_1" c_shape="RECT" pasteexpansion="0" solderexpansion="0.4"><polygon  c_etype="pad_shell" points="4201.462 3071.967 4205.537 3071.967 4205.537 3076.032 4201.462 3076.032" layerid="11" stroke-width="0" /><circle c_etype="pad_hole" cx="4203.5" cy="3074" r="1.25" layerid="11" stroke-width="0"/></g><g c_partid="part_pad" c_etype="pinpart" c_origin="4193.5,3074" layerid="11" number="1" net="R2_1" plated ="Y"  id="gge40" locked="0" c_rotation="0" c_width="4.07" c_height="4.07" title="R2_1" c_shape="RECT" pasteexpansion="0" solderexpansion="0.4"><polygon  c_etype="pad_shell" points="4191.462 3071.967 4195.537 3071.967 4195.537 3076.032 4191.462 3076.032" layerid="11" stroke-width="0" /><circle c_etype="pad_hole" cx="4193.5" cy="3074" r="1.25" layerid="11" stroke-width="0"/></g><g c_partid="part_pad" c_etype="pinpart" c_origin="4205.5,3146" layerid="11" number="1" net="U2_1" plated ="Y"  id="gge53" locked="0" c_rotation="90" c_width="6" c_height="6" title="U2_1" c_shape="RECT" pasteexpansion="0" solderexpansion="0.4"><polygon  c_etype="pad_shell" points="4202.5 3149 4202.5 3143 4208.5 3143 4208.5 3149" layerid="11" stroke-width="0" /><circle c_etype="pad_hole" cx="4205.5" cy="3146" r="1.8" layerid="11" stroke-width="0"/></g><g c_partid="part_pad" c_etype="pinpart" c_origin="4215.5,3146" layerid="11" number="2" net="U2_2" plated ="Y"  id="gge58" locked="0" c_rotation="90" c_width="6" c_height="6" title="U2_2" c_shape="ELLIPSE" pasteexpansion="0" solderexpansion="0.4"><ellipse c_etype="pad_shell" cx="4215.5" cy="3146" rx="3" ry="3" layerid="11" stroke-width="0"/><circle c_etype="pad_hole" cx="4215.5" cy="3146" r="1.8" layerid="11" stroke-width="0"/></g><g c_partid="part_pad" c_etype="pinpart" c_origin="4225.5,3146" layerid="11" number="3" net="U2_3" plated ="Y"  id="gge63" locked="0" c_rotation="90" c_width="6" c_height="6" title="U2_3" c_shape="ELLIPSE" pasteexpansion="0" solderexpansion="0.4"><ellipse c_etype="pad_shell" cx="4225.5" cy="3146" rx="3" ry="3" layerid="11" stroke-width="0"/><circle c_etype="pad_hole" cx="4225.5" cy="3146" r="1.8" layerid="11" stroke-width="0"/></g><g c_partid="part_pad" c_etype="pinpart" c_origin="4235.5,3146" layerid="11" number="4" net="R3_2" plated ="Y"  id="gge68" locked="0" c_rotation="90" c_width="6" c_height="6" title="R3_2" c_shape="ELLIPSE" pasteexpansion="0" solderexpansion="0.4"><ellipse c_etype="pad_shell" cx="4235.5" cy="3146" rx="3" ry="3" layerid="11" stroke-width="0"/><circle c_etype="pad_hole" cx="4235.5" cy="3146" r="1.8" layerid="11" stroke-width="0"/></g><g c_partid="part_pad" c_etype="pinpart" c_origin="4235.5,3116" layerid="11" number="5" net="U2_5" plated ="Y"  id="gge73" locked="0" c_rotation="90" c_width="6" c_height="6" title="U2_5" c_shape="ELLIPSE" pasteexpansion="0" solderexpansion="0.4"><ellipse c_etype="pad_shell" cx="4235.5" cy="3116" rx="3" ry="3" layerid="11" stroke-width="0"/><circle c_etype="pad_hole" cx="4235.5" cy="3116" r="1.8" layerid="11" stroke-width="0"/></g><g c_partid="part_pad" c_etype="pinpart" c_origin="4225.5,3116" layerid="11" number="6" net="R1_1" plated ="Y"  id="gge78" locked="0" c_rotation="90" c_width="6" c_height="6" title="R1_1" c_shape="ELLIPSE" pasteexpansion="0" solderexpansion="0.4"><ellipse c_etype="pad_shell" cx="4225.5" cy="3116" rx="3" ry="3" layerid="11" stroke-width="0"/><circle c_etype="pad_hole" cx="4225.5" cy="3116" r="1.8" layerid="11" stroke-width="0"/></g><g c_partid="part_pad" c_etype="pinpart" c_origin="4215.5,3116" layerid="11" number="7" net="R3_1" plated ="Y"  id="gge83" locked="0" c_rotation="90" c_width="6" c_height="6" title="R3_1" c_shape="ELLIPSE" pasteexpansion="0" solderexpansion="0.4"><ellipse c_etype="pad_shell" cx="4215.5" cy="3116" rx="3" ry="3" layerid="11" stroke-width="0"/><circle c_etype="pad_hole" cx="4215.5" cy="3116" r="1.8" layerid="11" stroke-width="0"/></g><g c_partid="part_pad" c_etype="pinpart" c_origin="4205.5,3116" layerid="11" number="8" net="R2_1" plated ="Y"  id="gge88" locked="0" c_rotation="90" c_width="6" c_height="6" title="R2_1" c_shape="ELLIPSE" pasteexpansion="0" solderexpansion="0.4"><ellipse c_etype="pad_shell" cx="4205.5" cy="3116" rx="3" ry="3" layerid="11" stroke-width="0"/><circle c_etype="pad_hole" cx="4205.5" cy="3116" r="1.8" layerid="11" stroke-width="0"/></g><g c_partid="part_pad" c_etype="pinpart" c_origin="4160,3071.5" layerid="11" number="1" net="R3_2" plated ="Y"  id="gge153" locked="0" c_rotation="0" c_width="6.6" c_height="6.6" title="R3_2" c_shape="RECT" pasteexpansion="0" solderexpansion="0.4"><polygon  c_etype="pad_shell" points="4156.7 3068.2 4163.3 3068.2 4163.3 3074.8 4156.7 3074.8" layerid="11" stroke-width="0" /><circle c_etype="pad_hole" cx="4160" cy="3071.5" r="1.6" layerid="11" stroke-width="0"/></g><g c_partid="part_pad" c_etype="pinpart" c_origin="4168.5,3071.5" layerid="11" number="2" net="R1_2" plated ="Y"  id="gge158" locked="0" c_rotation="0" c_width="6.6" c_height="6.6" title="R1_2" c_shape="RECT" pasteexpansion="0" solderexpansion="0.4"><polygon  c_etype="pad_shell" points="4165.2 3068.2 4171.8 3068.2 4171.8 3074.8 4165.2 3074.8" layerid="11" stroke-width="0" /><circle c_etype="pad_hole" cx="4168.5" cy="3071.5" r="1.6" layerid="11" stroke-width="0"/></g><g c_partid="part_pad" c_etype="pinpart" c_origin="4177,3071.5" layerid="11" number="3" net="M1_2" plated ="Y"  id="gge163" locked="0" c_rotation="0" c_width="6.6" c_height="6.6" title="M1_2" c_shape="RECT" pasteexpansion="0" solderexpansion="0.4"><polygon  c_etype="pad_shell" points="4173.7 3068.2 4180.3 3068.2 4180.3 3074.8 4173.7 3074.8" layerid="11" stroke-width="0" /><circle c_etype="pad_hole" cx="4177" cy="3071.5" r="1.6" layerid="11" stroke-width="0"/></g><g c_partid="part_pad" c_etype="pinpart" c_origin="4109,3175" layerid="11" number="1" net="R2_1" plated ="Y"  id="gge176" locked="0" c_rotation="90" c_width="7.874" c_height="7.874" title="R2_1" c_shape="ELLIPSE" pasteexpansion="0" solderexpansion="0.4"><ellipse c_etype="pad_shell" cx="4109" cy="3175" rx="3.937" ry="3.937" layerid="11" stroke-width="0"/><circle c_etype="pad_hole" cx="4109" cy="3175" r="2.9528" layerid="11" stroke-width="0"/></g><g c_partid="part_pad" c_etype="pinpart" c_origin="4109,3092.5" layerid="11" number="2" net="R3_2" plated ="Y"  id="gge181" locked="0" c_rotation="90" c_width="7.874" c_height="7.874" title="R3_2" c_shape="ELLIPSE" pasteexpansion="0" solderexpansion="0.4"><ellipse c_etype="pad_shell" cx="4109" cy="3092.5" rx="3.937" ry="3.937" layerid="11" stroke-width="0"/><circle c_etype="pad_hole" cx="4109" cy="3092.5" r="2.9528" layerid="11" stroke-width="0"/></g><polyline points="4155 3169.5 4152.5 3169.5 4152.5 3172.8733 4155 3172.8733" stroke-width="1"  stroke-linecap="round" fill="none" layerid="3" net="" id="gge7" locked="0" /><polyline points="4155 3147.6267 4152.5 3147.6267 4152.5 3151 4155 3151" stroke-width="1"  stroke-linecap="round" fill="none" layerid="3" net="" id="gge8" locked="0" /><polyline points="4155 3172.8457 4195 3172.8457" stroke-width="1"  stroke-linecap="round" fill="none" layerid="3" net="" id="gge9" locked="0" /><polyline points="4155 3166.8457 4195 3166.8457" stroke-width="1"  stroke-linecap="round" fill="none" layerid="3" net="" id="gge10" locked="0" /><polyline points="4155 3151.2458 4195 3151.2458" stroke-width="1"  stroke-linecap="round" fill="none" layerid="3" net="" id="gge11" locked="0" /><polyline points="4155 3175.1416 4195 3175.1416" stroke-width="1"  stroke-linecap="round" fill="none" layerid="3" net="" id="gge12" locked="0" /><polyline points="4195 3142.8584 4195 3175.1416" stroke-width="1"  stroke-linecap="round" fill="none" layerid="3" net="" id="gge13" locked="0" /><polyline points="4155 3142.8584 4155 3175.1416" stroke-width="1"  stroke-linecap="round" fill="none" layerid="3" net="" id="gge14" locked="0" /><polyline points="4155 3142.8584 4195 3142.8584" stroke-width="1"  stroke-linecap="round" fill="none" layerid="3" net="" id="gge15" locked="0" /><polyline points="4204.5 3128 4204.5 3128 4204.5 3121 4236.5 3121 4236.5 3141 4204.5 3141 4204.5 3134 4204.5 3134" stroke-width="1"  stroke-linecap="round" fill="none" layerid="3" net="" id="gge51" locked="0" /><polyline points="4238.3503 3098.6022 4244.6497 3098.6022" stroke-width="1"  stroke-linecap="round" fill="none" layerid="3" net="" id="gge99" locked="0" /><polyline points="4244.6296 3091.3163 4244.6296 3086.3952" stroke-width="1"  stroke-linecap="round" fill="none" layerid="3" net="" id="gge100" locked="0" /><polyline points="4238.3302 3091.3163 4238.3302 3086.3952" stroke-width="1"  stroke-linecap="round" fill="none" layerid="3" net="" id="gge101" locked="0" /><polyline points="4244.6497 3093.6808 4244.6497 3098.6022" stroke-width="1"  stroke-linecap="round" fill="none" layerid="3" net="" id="gge102" locked="0" /><polyline points="4238.3503 3093.6808 4238.3503 3098.6022" stroke-width="1"  stroke-linecap="round" fill="none" layerid="3" net="" id="gge103" locked="0" /><polyline points="4238.3302 3086.3952 4244.6296 3086.3952" stroke-width="1"  stroke-linecap="round" fill="none" layerid="3" net="" id="gge104" locked="0" /><polyline points="4131.8503 3197.6022 4138.1497 3197.6022" stroke-width="1"  stroke-linecap="round" fill="none" layerid="3" net="" id="gge123" locked="0" /><polyline points="4138.1296 3190.3163 4138.1296 3185.3952" stroke-width="1"  stroke-linecap="round" fill="none" layerid="3" net="" id="gge124" locked="0" /><polyline points="4131.8302 3190.3163 4131.8302 3185.3952" stroke-width="1"  stroke-linecap="round" fill="none" layerid="3" net="" id="gge125" locked="0" /><polyline points="4138.1497 3192.6808 4138.1497 3197.6022" stroke-width="1"  stroke-linecap="round" fill="none" layerid="3" net="" id="gge126" locked="0" /><polyline points="4131.8503 3192.6808 4131.8503 3197.6022" stroke-width="1"  stroke-linecap="round" fill="none" layerid="3" net="" id="gge127" locked="0" /><polyline points="4131.8302 3185.3952 4138.1296 3185.3952" stroke-width="1"  stroke-linecap="round" fill="none" layerid="3" net="" id="gge128" locked="0" /><polyline points="4160.3 3078 4176.7 3078" stroke-width="1"  stroke-linecap="round" fill="none" layerid="3" net="" id="gge147" locked="0" /><polyline points="4158 3072.5 4159.6 3072.5" stroke-width="1"  stroke-linecap="round" fill="none" layerid="3" net="" id="gge148" locked="0" /><polyline points="4177.4 3072.5 4179 3072.5" stroke-width="1"  stroke-linecap="round" fill="none" layerid="3" net="" id="gge149" locked="0" /><polyline points="4120.5 3166 4120.5 3180.5 4098 3180.5 4097.5 3180.2928 4097.5 3166.5" stroke-width="0.7874"  stroke-linecap="round" fill="none" layerid="3" net="" id="gge175" locked="0" /><g c_partid="part_pcbtext" c_etype="" c_origin="4173,3134" c_rotation="0" c_mirror="0" id="gge3" locked="0" layerid="3" c_shapetype="group" display="none"><path c_fontsize="4.5" c_fontfamily="" c_text="Motor_DC" d="M 4173 3129.46 L 4173 3133.75 M 4173 3129.46 L 4174.64 3133.75 M 4176.27 3129.46 L 4174.64 3133.75 M 4176.27 3129.46 L 4176.27 3133.75 M 4178.65 3130.89 L 4178.24 3131.1 L 4177.83 3131.5 L 4177.62 3132.12 L 4177.62 3132.53 L 4177.83 3133.14 L 4178.24 3133.55 L 4178.65 3133.75 L 4179.26 3133.75 L 4179.67 3133.55 L 4180.08 3133.14 L 4180.28 3132.53 L 4180.28 3132.12 L 4180.08 3131.5 L 4179.67 3131.1 L 4179.26 3130.89 L 4178.65 3130.89 M 4182.25 3129.46 L 4182.25 3132.94 L 4182.45 3133.55 L 4182.86 3133.75 L 4183.27 3133.75 M 4181.63 3130.89 L 4183.06 3130.89 M 4185.64 3130.89 L 4185.23 3131.1 L 4184.82 3131.5 L 4184.62 3132.12 L 4184.62 3132.53 L 4184.82 3133.14 L 4185.23 3133.55 L 4185.64 3133.75 L 4186.25 3133.75 L 4186.66 3133.55 L 4187.07 3133.14 L 4187.28 3132.53 L 4187.28 3132.12 L 4187.07 3131.5 L 4186.66 3131.1 L 4186.25 3130.89 L 4185.64 3130.89 M 4188.63 3130.89 L 4188.63 3133.75 M 4188.63 3132.12 L 4188.83 3131.5 L 4189.24 3131.1 L 4189.65 3130.89 L 4190.26 3130.89 M 4191.61 3135.19 L 4195.3 3135.19 M 4196.65 3129.46 L 4196.65 3133.75 M 4196.65 3129.46 L 4198.08 3129.46 L 4198.69 3129.66 L 4199.1 3130.07 L 4199.3 3130.48 L 4199.51 3131.1 L 4199.51 3132.12 L 4199.3 3132.73 L 4199.1 3133.14 L 4198.69 3133.55 L 4198.08 3133.75 L 4196.65 3133.75 M 4203.93 3130.48 L 4203.72 3130.07 L 4203.31 3129.66 L 4202.9 3129.46 L 4202.09 3129.46 L 4201.68 3129.66 L 4201.27 3130.07 L 4201.06 3130.48 L 4200.86 3131.1 L 4200.86 3132.12 L 4201.06 3132.73 L 4201.27 3133.14 L 4201.68 3133.55 L 4202.09 3133.75 L 4202.9 3133.75 L 4203.31 3133.55 L 4203.72 3133.14 L 4203.93 3132.73" fill="none"  stroke-width="0.6" c_note="note_name" /></g><g c_partid="part_pcbtext" c_etype="" c_origin="4173,3141" c_rotation="0" c_mirror="0" id="gge5" locked="0" layerid="3" c_shapetype="group" ><path c_fontsize="4.5" c_fontfamily="" c_text="M1" d="M 4173 3136.46 L 4173 3140.75 M 4173 3136.46 L 4174.64 3140.75 M 4176.27 3136.46 L 4174.64 3140.75 M 4176.27 3136.46 L 4176.27 3140.75 M 4177.62 3137.28 L 4178.03 3137.07 L 4178.65 3136.46 L 4178.65 3140.75" fill="none"  stroke-width="0.6" c_note="note_pre" /></g><g c_partid="part_pcbtext" c_etype="" c_origin="4198.497,3057.002" c_rotation="0" c_mirror="0" id="gge30" locked="0" layerid="3" c_shapetype="group" display="none"><path c_fontsize="4.5" c_fontfamily="" c_text="PHOTORESPDV-P9" d="M 4198.497 3052.462 L 4198.497 3056.752 M 4198.497 3052.462 L 4200.337 3052.462 L 4200.947 3052.662 L 4201.157 3052.872 L 4201.357 3053.282 L 4201.357 3053.892 L 4201.157 3054.302 L 4200.947 3054.502 L 4200.337 3054.712 L 4198.497 3054.712 M 4202.707 3052.462 L 4202.707 3056.752 M 4205.577 3052.462 L 4205.577 3056.752 M 4202.707 3054.502 L 4205.577 3054.502 M 4208.147 3052.462 L 4207.747 3052.662 L 4207.337 3053.072 L 4207.127 3053.482 L 4206.927 3054.102 L 4206.927 3055.122 L 4207.127 3055.732 L 4207.337 3056.142 L 4207.747 3056.552 L 4208.147 3056.752 L 4208.967 3056.752 L 4209.377 3056.552 L 4209.787 3056.142 L 4209.997 3055.732 L 4210.197 3055.122 L 4210.197 3054.102 L 4209.997 3053.482 L 4209.787 3053.072 L 4209.377 3052.662 L 4208.967 3052.462 L 4208.147 3052.462 M 4212.977 3052.462 L 4212.977 3056.752 M 4211.547 3052.462 L 4214.407 3052.462 M 4216.987 3052.462 L 4216.577 3052.662 L 4216.167 3053.072 L 4215.967 3053.482 L 4215.757 3054.102 L 4215.757 3055.122 L 4215.967 3055.732 L 4216.167 3056.142 L 4216.577 3056.552 L 4216.987 3056.752 L 4217.807 3056.752 L 4218.217 3056.552 L 4218.627 3056.142 L 4218.827 3055.732 L 4219.037 3055.122 L 4219.037 3054.102 L 4218.827 3053.482 L 4218.627 3053.072 L 4218.217 3052.662 L 4217.807 3052.462 L 4216.987 3052.462 M 4220.387 3052.462 L 4220.387 3056.752 M 4220.387 3052.462 L 4222.227 3052.462 L 4222.837 3052.662 L 4223.047 3052.872 L 4223.247 3053.282 L 4223.247 3053.692 L 4223.047 3054.102 L 4222.837 3054.302 L 4222.227 3054.502 L 4220.387 3054.502 M 4221.817 3054.502 L 4223.247 3056.752 M 4224.597 3052.462 L 4224.597 3056.752 M 4224.597 3052.462 L 4227.257 3052.462 M 4224.597 3054.502 L 4226.237 3054.502 M 4224.597 3056.752 L 4227.257 3056.752 M 4231.467 3053.072 L 4231.057 3052.662 L 4230.447 3052.462 L 4229.627 3052.462 L 4229.017 3052.662 L 4228.607 3053.072 L 4228.607 3053.482 L 4228.807 3053.892 L 4229.017 3054.102 L 4229.427 3054.302 L 4230.647 3054.712 L 4231.057 3054.912 L 4231.267 3055.122 L 4231.467 3055.532 L 4231.467 3056.142 L 4231.057 3056.552 L 4230.447 3056.752 L 4229.627 3056.752 L 4229.017 3056.552 L 4228.607 3056.142 M 4232.817 3052.462 L 4232.817 3056.752 M 4232.817 3052.462 L 4234.657 3052.462 L 4235.277 3052.662 L 4235.477 3052.872 L 4235.687 3053.282 L 4235.687 3053.892 L 4235.477 3054.302 L 4235.277 3054.502 L 4234.657 3054.712 L 4232.817 3054.712 M 4237.037 3052.462 L 4237.037 3056.752 M 4237.037 3052.462 L 4238.467 3052.462 L 4239.077 3052.662 L 4239.487 3053.072 L 4239.697 3053.482 L 4239.897 3054.102 L 4239.897 3055.122 L 4239.697 3055.732 L 4239.487 3056.142 L 4239.077 3056.552 L 4238.467 3056.752 L 4237.037 3056.752 M 4241.247 3052.462 L 4242.887 3056.752 M 4244.517 3052.462 L 4242.887 3056.752 M 4245.867 3054.912 L 4249.547 3054.912 M 4250.897 3052.462 L 4250.897 3056.752 M 4250.897 3052.462 L 4252.747 3052.462 L 4253.357 3052.662 L 4253.557 3052.872 L 4253.767 3053.282 L 4253.767 3053.892 L 4253.557 3054.302 L 4253.357 3054.502 L 4252.747 3054.712 L 4250.897 3054.712 M 4257.777 3053.892 L 4257.567 3054.502 L 4257.157 3054.912 L 4256.547 3055.122 L 4256.347 3055.122 L 4255.727 3054.912 L 4255.317 3054.502 L 4255.117 3053.892 L 4255.117 3053.692 L 4255.317 3053.072 L 4255.727 3052.662 L 4256.347 3052.462 L 4256.547 3052.462 L 4257.157 3052.662 L 4257.567 3053.072 L 4257.777 3053.892 L 4257.777 3054.912 L 4257.567 3055.942 L 4257.157 3056.552 L 4256.547 3056.752 L 4256.137 3056.752 L 4255.527 3056.552 L 4255.317 3056.142" fill="none"  stroke-width="0.6" c_note="note_name" /></g><g c_partid="part_pcbtext" c_etype="" c_origin="4198.497,3064.002" c_rotation="0" c_mirror="0" id="gge32" locked="0" layerid="3" c_shapetype="group" ><path c_fontsize="4.5" c_fontfamily="" c_text="R2" d="M 4198.497 3059.462 L 4198.497 3063.752 M 4198.497 3059.462 L 4200.337 3059.462 L 4200.947 3059.662 L 4201.157 3059.872 L 4201.357 3060.282 L 4201.357 3060.692 L 4201.157 3061.102 L 4200.947 3061.302 L 4200.337 3061.502 L 4198.497 3061.502 M 4199.927 3061.502 L 4201.357 3063.752 M 4202.917 3060.482 L 4202.917 3060.282 L 4203.117 3059.872 L 4203.327 3059.662 L 4203.737 3059.462 L 4204.547 3059.462 L 4204.957 3059.662 L 4205.167 3059.872 L 4205.367 3060.282 L 4205.367 3060.692 L 4205.167 3061.102 L 4204.757 3061.712 L 4202.707 3063.752 L 4205.577 3063.752" fill="none"  stroke-width="0.6" c_note="note_pre" /></g><g c_partid="part_pcbtext" c_etype="" c_origin="4193.5,3131" c_rotation="90" c_mirror="0" id="gge47" locked="0" layerid="3" c_shapetype="group" display="none"><path c_fontsize="4.5" c_fontfamily="" c_text="ATTINY85 (THT)" d="M 4188.9598 3129.36 L 4193.2498 3131 M 4188.9598 3129.36 L 4193.2498 3127.73 M 4191.8198 3130.39 L 4191.8198 3128.34 M 4188.9598 3124.95 L 4193.2498 3124.95 M 4188.9598 3126.38 L 4188.9598 3123.51 M 4188.9598 3120.73 L 4193.2498 3120.73 M 4188.9598 3122.16 L 4188.9598 3119.3 M 4188.9598 3117.95 L 4193.2498 3117.95 M 4188.9598 3116.6 L 4193.2498 3116.6 M 4188.9598 3116.6 L 4193.2498 3113.74 M 4188.9598 3113.74 L 4193.2498 3113.74 M 4188.9598 3112.39 L 4190.9998 3110.75 L 4193.2498 3110.75 M 4188.9598 3109.11 L 4190.9998 3110.75 M 4188.9598 3106.74 L 4189.1598 3107.35 L 4189.5698 3107.56 L 4189.9798 3107.56 L 4190.3898 3107.35 L 4190.5998 3106.95 L 4190.7998 3106.13 L 4190.9998 3105.51 L 4191.4098 3105.1 L 4191.8198 3104.9 L 4192.4398 3104.9 L 4192.8498 3105.1 L 4193.0498 3105.31 L 4193.2498 3105.92 L 4193.2498 3106.74 L 4193.0498 3107.35 L 4192.8498 3107.56 L 4192.4398 3107.76 L 4191.8198 3107.76 L 4191.4098 3107.56 L 4190.9998 3107.15 L 4190.7998 3106.54 L 4190.5998 3105.72 L 4190.3898 3105.31 L 4189.9798 3105.1 L 4189.5698 3105.1 L 4189.1598 3105.31 L 4188.9598 3105.92 L 4188.9598 3106.74 M 4188.9598 3101.1 L 4188.9598 3103.14 L 4190.7998 3103.35 L 4190.5998 3103.14 L 4190.3898 3102.53 L 4190.3898 3101.91 L 4190.5998 3101.3 L 4190.9998 3100.89 L 4191.6198 3100.69 L 4192.0298 3100.69 L 4192.6398 3100.89 L 4193.0498 3101.3 L 4193.2498 3101.91 L 4193.2498 3102.53 L 4193.0498 3103.14 L 4192.8498 3103.35 L 4192.4398 3103.55 M 4188.1398 3094.75 L 4188.5498 3095.16 L 4189.1598 3095.57 L 4189.9798 3095.98 L 4190.9998 3096.19 L 4191.8198 3096.19 L 4192.8498 3095.98 L 4193.6598 3095.57 L 4194.2798 3095.16 L 4194.6898 3094.75 M 4188.9598 3091.97 L 4193.2498 3091.97 M 4188.9598 3093.4 L 4188.9598 3090.54 M 4188.9598 3089.19 L 4193.2498 3089.19 M 4188.9598 3086.33 L 4193.2498 3086.33 M 4190.9998 3089.19 L 4190.9998 3086.33 M 4188.9598 3083.55 L 4193.2498 3083.55 M 4188.9598 3084.98 L 4188.9598 3082.11 M 4188.1398 3080.76 L 4188.5498 3080.35 L 4189.1598 3079.95 L 4189.9798 3079.54 L 4190.9998 3079.33 L 4191.8198 3079.33 L 4192.8498 3079.54 L 4193.6598 3079.95 L 4194.2798 3080.35 L 4194.6898 3080.76" fill="none"  stroke-width="0.6" c_note="note_name" /></g><g c_partid="part_pcbtext" c_etype="" c_origin="4200.5,3131" c_rotation="90" c_mirror="0" id="gge49" locked="0" layerid="3" c_shapetype="group" ><path c_fontsize="4.5" c_fontfamily="" c_text="U2" d="M 4195.96 3131 L 4199.03 3131 L 4199.64 3130.8 L 4200.05 3130.39 L 4200.25 3129.77 L 4200.25 3129.36 L 4200.05 3128.75 L 4199.64 3128.34 L 4199.03 3128.14 L 4195.96 3128.14 M 4196.98 3126.58 L 4196.78 3126.58 L 4196.37 3126.38 L 4196.16 3126.17 L 4195.96 3125.76 L 4195.96 3124.95 L 4196.16 3124.54 L 4196.37 3124.33 L 4196.78 3124.13 L 4197.19 3124.13 L 4197.6 3124.33 L 4198.21 3124.74 L 4200.25 3126.79 L 4200.25 3123.92" fill="none"  stroke-width="0.6" c_note="note_pre" /></g><g c_partid="part_pcbtext" c_etype="" c_origin="4230,3092.693" c_rotation="90" c_mirror="0" id="gge95" locked="0" layerid="3" c_shapetype="group" display="none"><path c_fontsize="4.5" c_fontfamily="" c_text="10k" d="M 4226.28 3092.6926 L 4226.07 3092.2826 L 4225.46 3091.6726 L 4229.75 3091.6726 M 4225.46 3089.0926 L 4225.66 3089.7026 L 4226.28 3090.1126 L 4227.3 3090.3226 L 4227.91 3090.3226 L 4228.94 3090.1126 L 4229.55 3089.7026 L 4229.75 3089.0926 L 4229.75 3088.6826 L 4229.55 3088.0726 L 4228.94 3087.6626 L 4227.91 3087.4526 L 4227.3 3087.4526 L 4226.28 3087.6626 L 4225.66 3088.0726 L 4225.46 3088.6826 L 4225.46 3089.0926 M 4225.46 3086.1026 L 4229.75 3086.1026 M 4226.89 3084.0626 L 4228.94 3086.1026 M 4228.12 3085.2926 L 4229.75 3083.8526" fill="none"  stroke-width="0.6" c_note="note_name" /></g><g c_partid="part_pcbtext" c_etype="" c_origin="4237,3092.693" c_rotation="90" c_mirror="0" id="gge97" locked="0" layerid="3" c_shapetype="group" ><path c_fontsize="4.5" c_fontfamily="" c_text="R3" d="M 4232.46 3092.6926 L 4236.75 3092.6926 M 4232.46 3092.6926 L 4232.46 3090.8526 L 4232.66 3090.2426 L 4232.87 3090.0326 L 4233.28 3089.8326 L 4233.69 3089.8326 L 4234.1 3090.0326 L 4234.3 3090.2426 L 4234.5 3090.8526 L 4234.5 3092.6926 M 4234.5 3091.2626 L 4236.75 3089.8326 M 4232.46 3088.0726 L 4232.46 3085.8226 L 4234.1 3087.0426 L 4234.1 3086.4326 L 4234.3 3086.0226 L 4234.5 3085.8226 L 4235.12 3085.6126 L 4235.53 3085.6126 L 4236.14 3085.8226 L 4236.55 3086.2326 L 4236.75 3086.8426 L 4236.75 3087.4526 L 4236.55 3088.0726 L 4236.35 3088.2726 L 4235.94 3088.4826" fill="none"  stroke-width="0.6" c_note="note_pre" /></g><g c_partid="part_pcbtext" c_etype="" c_origin="4123.5,3191.693" c_rotation="90" c_mirror="0" id="gge119" locked="0" layerid="3" c_shapetype="group" display="none"><path c_fontsize="4.5" c_fontfamily="" c_text="330 Ohm" d="M 4118.96 3191.2826 L 4118.96 3189.0326 L 4120.6 3190.2626 L 4120.6 3189.6426 L 4120.8 3189.2426 L 4121 3189.0326 L 4121.62 3188.8326 L 4122.03 3188.8326 L 4122.64 3189.0326 L 4123.05 3189.4426 L 4123.25 3190.0526 L 4123.25 3190.6726 L 4123.05 3191.2826 L 4122.85 3191.4926 L 4122.44 3191.6926 M 4118.96 3187.0726 L 4118.96 3184.8226 L 4120.6 3186.0426 L 4120.6 3185.4326 L 4120.8 3185.0226 L 4121 3184.8226 L 4121.62 3184.6126 L 4122.03 3184.6126 L 4122.64 3184.8226 L 4123.05 3185.2326 L 4123.25 3185.8426 L 4123.25 3186.4526 L 4123.05 3187.0726 L 4122.85 3187.2726 L 4122.44 3187.4826 M 4118.96 3182.0426 L 4119.16 3182.6526 L 4119.78 3183.0626 L 4120.8 3183.2626 L 4121.41 3183.2626 L 4122.44 3183.0626 L 4123.05 3182.6526 L 4123.25 3182.0426 L 4123.25 3181.6326 L 4123.05 3181.0126 L 4122.44 3180.6026 L 4121.41 3180.4026 L 4120.8 3180.4026 L 4119.78 3180.6026 L 4119.16 3181.0126 L 4118.96 3181.6326 L 4118.96 3182.0426 M 4118.96 3174.6726 L 4119.16 3175.0826 L 4119.57 3175.4926 L 4119.98 3175.6926 L 4120.6 3175.9026 L 4121.62 3175.9026 L 4122.23 3175.6926 L 4122.64 3175.4926 L 4123.05 3175.0826 L 4123.25 3174.6726 L 4123.25 3173.8526 L 4123.05 3173.4426 L 4122.64 3173.0426 L 4122.23 3172.8326 L 4121.62 3172.6326 L 4120.6 3172.6326 L 4119.98 3172.8326 L 4119.57 3173.0426 L 4119.16 3173.4426 L 4118.96 3173.8526 L 4118.96 3174.6726 M 4118.96 3171.2826 L 4123.25 3171.2826 M 4121.21 3171.2826 L 4120.6 3170.6626 L 4120.39 3170.2526 L 4120.39 3169.6426 L 4120.6 3169.2326 L 4121.21 3169.0326 L 4123.25 3169.0326 M 4120.39 3167.6826 L 4123.25 3167.6826 M 4121.21 3167.6826 L 4120.6 3167.0626 L 4120.39 3166.6526 L 4120.39 3166.0426 L 4120.6 3165.6326 L 4121.21 3165.4326 L 4123.25 3165.4326 M 4121.21 3165.4326 L 4120.6 3164.8126 L 4120.39 3164.4026 L 4120.39 3163.7926 L 4120.6 3163.3826 L 4121.21 3163.1826 L 4123.25 3163.1826" fill="none"  stroke-width="0.6" c_note="note_name" /></g><g c_partid="part_pcbtext" c_etype="" c_origin="4130.5,3191.693" c_rotation="90" c_mirror="0" id="gge121" locked="0" layerid="3" c_shapetype="group" ><path c_fontsize="4.5" c_fontfamily="" c_text="R1" d="M 4125.96 3191.6926 L 4130.25 3191.6926 M 4125.96 3191.6926 L 4125.96 3189.8526 L 4126.16 3189.2426 L 4126.37 3189.0326 L 4126.78 3188.8326 L 4127.19 3188.8326 L 4127.6 3189.0326 L 4127.8 3189.2426 L 4128 3189.8526 L 4128 3191.6926 M 4128 3190.2626 L 4130.25 3188.8326 M 4126.78 3187.4826 L 4126.57 3187.0726 L 4125.96 3186.4526 L 4130.25 3186.4526" fill="none"  stroke-width="0.6" c_note="note_pre" /></g><g c_partid="part_pcbtext" c_etype="" c_origin="4168.5,3052.5" c_rotation="0" c_mirror="0" id="gge143" locked="0" layerid="3" c_shapetype="group" display="none"><path c_fontsize="4.5" c_fontfamily="" c_text="P2N2222AG" d="M 4168.5 3047.96 L 4168.5 3052.25 M 4168.5 3047.96 L 4170.34 3047.96 L 4170.95 3048.16 L 4171.16 3048.37 L 4171.36 3048.78 L 4171.36 3049.39 L 4171.16 3049.8 L 4170.95 3050 L 4170.34 3050.21 L 4168.5 3050.21 M 4172.92 3048.98 L 4172.92 3048.78 L 4173.12 3048.37 L 4173.33 3048.16 L 4173.74 3047.96 L 4174.55 3047.96 L 4174.96 3048.16 L 4175.17 3048.37 L 4175.37 3048.78 L 4175.37 3049.19 L 4175.17 3049.6 L 4174.76 3050.21 L 4172.71 3052.25 L 4175.58 3052.25 M 4176.93 3047.96 L 4176.93 3052.25 M 4176.93 3047.96 L 4179.79 3052.25 M 4179.79 3047.96 L 4179.79 3052.25 M 4181.35 3048.98 L 4181.35 3048.78 L 4181.55 3048.37 L 4181.75 3048.16 L 4182.16 3047.96 L 4182.98 3047.96 L 4183.39 3048.16 L 4183.6 3048.37 L 4183.8 3048.78 L 4183.8 3049.19 L 4183.6 3049.6 L 4183.19 3050.21 L 4181.14 3052.25 L 4184 3052.25 M 4185.56 3048.98 L 4185.56 3048.78 L 4185.76 3048.37 L 4185.97 3048.16 L 4186.38 3047.96 L 4187.2 3047.96 L 4187.6 3048.16 L 4187.81 3048.37 L 4188.01 3048.78 L 4188.01 3049.19 L 4187.81 3049.6 L 4187.4 3050.21 L 4185.35 3052.25 L 4188.22 3052.25 M 4189.77 3048.98 L 4189.77 3048.78 L 4189.98 3048.37 L 4190.18 3048.16 L 4190.59 3047.96 L 4191.41 3047.96 L 4191.82 3048.16 L 4192.02 3048.37 L 4192.23 3048.78 L 4192.23 3049.19 L 4192.02 3049.6 L 4191.61 3050.21 L 4189.57 3052.25 L 4192.43 3052.25 M 4193.99 3048.98 L 4193.99 3048.78 L 4194.19 3048.37 L 4194.4 3048.16 L 4194.8 3047.96 L 4195.62 3047.96 L 4196.03 3048.16 L 4196.24 3048.37 L 4196.44 3048.78 L 4196.44 3049.19 L 4196.24 3049.6 L 4195.83 3050.21 L 4193.78 3052.25 L 4196.65 3052.25 M 4199.63 3047.96 L 4198 3052.25 M 4199.63 3047.96 L 4201.27 3052.25 M 4198.61 3050.82 L 4200.65 3050.82 M 4205.69 3048.98 L 4205.48 3048.57 L 4205.07 3048.16 L 4204.66 3047.96 L 4203.85 3047.96 L 4203.44 3048.16 L 4203.03 3048.57 L 4202.82 3048.98 L 4202.62 3049.6 L 4202.62 3050.62 L 4202.82 3051.23 L 4203.03 3051.64 L 4203.44 3052.05 L 4203.85 3052.25 L 4204.66 3052.25 L 4205.07 3052.05 L 4205.48 3051.64 L 4205.69 3051.23 L 4205.69 3050.62 M 4204.66 3050.62 L 4205.69 3050.62" fill="none"  stroke-width="0.6" c_note="note_name" /></g><g c_partid="part_pcbtext" c_etype="" c_origin="4168.5,3059.5" c_rotation="0" c_mirror="0" id="gge145" locked="0" layerid="3" c_shapetype="group" ><path c_fontsize="4.5" c_fontfamily="" c_text="TRANSISTOR1" d="M 4169.93 3054.96 L 4169.93 3059.25 M 4168.5 3054.96 L 4171.36 3054.96 M 4172.71 3054.96 L 4172.71 3059.25 M 4172.71 3054.96 L 4174.55 3054.96 L 4175.17 3055.16 L 4175.37 3055.37 L 4175.58 3055.78 L 4175.58 3056.19 L 4175.37 3056.6 L 4175.17 3056.8 L 4174.55 3057 L 4172.71 3057 M 4174.15 3057 L 4175.58 3059.25 M 4178.56 3054.96 L 4176.93 3059.25 M 4178.56 3054.96 L 4180.2 3059.25 M 4177.54 3057.82 L 4179.59 3057.82 M 4181.55 3054.96 L 4181.55 3059.25 M 4181.55 3054.96 L 4184.41 3059.25 M 4184.41 3054.96 L 4184.41 3059.25 M 4188.63 3055.57 L 4188.22 3055.16 L 4187.6 3054.96 L 4186.79 3054.96 L 4186.17 3055.16 L 4185.76 3055.57 L 4185.76 3055.98 L 4185.97 3056.39 L 4186.17 3056.6 L 4186.58 3056.8 L 4187.81 3057.21 L 4188.22 3057.41 L 4188.42 3057.62 L 4188.63 3058.03 L 4188.63 3058.64 L 4188.22 3059.05 L 4187.6 3059.25 L 4186.79 3059.25 L 4186.17 3059.05 L 4185.76 3058.64 M 4189.98 3054.96 L 4189.98 3059.25 M 4194.19 3055.57 L 4193.78 3055.16 L 4193.17 3054.96 L 4192.35 3054.96 L 4191.74 3055.16 L 4191.33 3055.57 L 4191.33 3055.98 L 4191.53 3056.39 L 4191.74 3056.6 L 4192.15 3056.8 L 4193.37 3057.21 L 4193.78 3057.41 L 4193.99 3057.62 L 4194.19 3058.03 L 4194.19 3058.64 L 4193.78 3059.05 L 4193.17 3059.25 L 4192.35 3059.25 L 4191.74 3059.05 L 4191.33 3058.64 M 4196.97 3054.96 L 4196.97 3059.25 M 4195.54 3054.96 L 4198.4 3054.96 M 4200.98 3054.96 L 4200.57 3055.16 L 4200.16 3055.57 L 4199.96 3055.98 L 4199.75 3056.6 L 4199.75 3057.62 L 4199.96 3058.23 L 4200.16 3058.64 L 4200.57 3059.05 L 4200.98 3059.25 L 4201.8 3059.25 L 4202.21 3059.05 L 4202.62 3058.64 L 4202.82 3058.23 L 4203.03 3057.62 L 4203.03 3056.6 L 4202.82 3055.98 L 4202.62 3055.57 L 4202.21 3055.16 L 4201.8 3054.96 L 4200.98 3054.96 M 4204.38 3054.96 L 4204.38 3059.25 M 4204.38 3054.96 L 4206.22 3054.96 L 4206.83 3055.16 L 4207.04 3055.37 L 4207.24 3055.78 L 4207.24 3056.19 L 4207.04 3056.6 L 4206.83 3056.8 L 4206.22 3057 L 4204.38 3057 M 4205.81 3057 L 4207.24 3059.25 M 4208.59 3055.78 L 4209 3055.57 L 4209.61 3054.96 L 4209.61 3059.25" fill="none"  stroke-width="0.6" c_note="note_pre" /></g><g c_partid="part_pcbtext" c_etype="" c_origin="4057,3131.25" c_rotation="90" c_mirror="0" id="gge170" locked="0" layerid="3" c_shapetype="group" display="none"><path c_fontsize="4.5" c_fontfamily="" c_text="CR2032 BATTERY HOLDER (THT)" d="M 4053.48 3128.18 L 4053.07 3128.39 L 4052.66 3128.8 L 4052.46 3129.2 L 4052.46 3130.02 L 4052.66 3130.43 L 4053.07 3130.84 L 4053.48 3131.05 L 4054.1 3131.25 L 4055.12 3131.25 L 4055.73 3131.05 L 4056.14 3130.84 L 4056.55 3130.43 L 4056.75 3130.02 L 4056.75 3129.2 L 4056.55 3128.8 L 4056.14 3128.39 L 4055.73 3128.18 M 4052.46 3126.83 L 4056.75 3126.83 M 4052.46 3126.83 L 4052.46 3124.99 L 4052.66 3124.38 L 4052.87 3124.17 L 4053.28 3123.97 L 4053.69 3123.97 L 4054.1 3124.17 L 4054.3 3124.38 L 4054.5 3124.99 L 4054.5 3126.83 M 4054.5 3125.4 L 4056.75 3123.97 M 4053.48 3122.41 L 4053.28 3122.41 L 4052.87 3122.21 L 4052.66 3122 L 4052.46 3121.6 L 4052.46 3120.78 L 4052.66 3120.37 L 4052.87 3120.16 L 4053.28 3119.96 L 4053.69 3119.96 L 4054.1 3120.16 L 4054.71 3120.57 L 4056.75 3122.62 L 4056.75 3119.75 M 4052.46 3117.18 L 4052.66 3117.79 L 4053.28 3118.2 L 4054.3 3118.4 L 4054.91 3118.4 L 4055.94 3118.2 L 4056.55 3117.79 L 4056.75 3117.18 L 4056.75 3116.77 L 4056.55 3116.15 L 4055.94 3115.75 L 4054.91 3115.54 L 4054.3 3115.54 L 4053.28 3115.75 L 4052.66 3116.15 L 4052.46 3116.77 L 4052.46 3117.18 M 4052.46 3113.78 L 4052.46 3111.53 L 4054.1 3112.76 L 4054.1 3112.15 L 4054.3 3111.74 L 4054.5 3111.53 L 4055.12 3111.33 L 4055.53 3111.33 L 4056.14 3111.53 L 4056.55 3111.94 L 4056.75 3112.55 L 4056.75 3113.17 L 4056.55 3113.78 L 4056.35 3113.99 L 4055.94 3114.19 M 4053.48 3109.77 L 4053.28 3109.77 L 4052.87 3109.57 L 4052.66 3109.36 L 4052.46 3108.95 L 4052.46 3108.14 L 4052.66 3107.73 L 4052.87 3107.52 L 4053.28 3107.32 L 4053.69 3107.32 L 4054.1 3107.52 L 4054.71 3107.93 L 4056.75 3109.98 L 4056.75 3107.11 M 4052.46 3102.61 L 4056.75 3102.61 M 4052.46 3102.61 L 4052.46 3100.77 L 4052.66 3100.16 L 4052.87 3099.95 L 4053.28 3099.75 L 4053.69 3099.75 L 4054.1 3099.95 L 4054.3 3100.16 L 4054.5 3100.77 M 4054.5 3102.61 L 4054.5 3100.77 L 4054.71 3100.16 L 4054.91 3099.95 L 4055.32 3099.75 L 4055.94 3099.75 L 4056.35 3099.95 L 4056.55 3100.16 L 4056.75 3100.77 L 4056.75 3102.61 M 4052.46 3096.76 L 4056.75 3098.4 M 4052.46 3096.76 L 4056.75 3095.13 M 4055.32 3097.79 L 4055.32 3095.74 M 4052.46 3092.35 L 4056.75 3092.35 M 4052.46 3093.78 L 4052.46 3090.91 M 4052.46 3088.13 L 4056.75 3088.13 M 4052.46 3089.56 L 4052.46 3086.7 M 4052.46 3085.35 L 4056.75 3085.35 M 4052.46 3085.35 L 4052.46 3082.69 M 4054.5 3085.35 L 4054.5 3083.71 M 4056.75 3085.35 L 4056.75 3082.69 M 4052.46 3081.34 L 4056.75 3081.34 M 4052.46 3081.34 L 4052.46 3079.5 L 4052.66 3078.89 L 4052.87 3078.68 L 4053.28 3078.48 L 4053.69 3078.48 L 4054.1 3078.68 L 4054.3 3078.89 L 4054.5 3079.5 L 4054.5 3081.34 M 4054.5 3079.91 L 4056.75 3078.48 M 4052.46 3077.13 L 4054.5 3075.49 L 4056.75 3075.49 M 4052.46 3073.85 L 4054.5 3075.49 M 4052.46 3069.35 L 4056.75 3069.35 M 4052.46 3066.49 L 4056.75 3066.49 M 4054.5 3069.35 L 4054.5 3066.49 M 4052.46 3063.91 L 4052.66 3064.32 L 4053.07 3064.73 L 4053.48 3064.94 L 4054.1 3065.14 L 4055.12 3065.14 L 4055.73 3064.94 L 4056.14 3064.73 L 4056.55 3064.32 L 4056.75 3063.91 L 4056.75 3063.1 L 4056.55 3062.69 L 4056.14 3062.28 L 4055.73 3062.07 L 4055.12 3061.87 L 4054.1 3061.87 L 4053.48 3062.07 L 4053.07 3062.28 L 4052.66 3062.69 L 4052.46 3063.1 L 4052.46 3063.91 M 4052.46 3060.52 L 4056.75 3060.52 M 4056.75 3060.52 L 4056.75 3058.06 M 4052.46 3056.71 L 4056.75 3056.71 M 4052.46 3056.71 L 4052.46 3055.28 L 4052.66 3054.67 L 4053.07 3054.26 L 4053.48 3054.05 L 4054.1 3053.85 L 4055.12 3053.85 L 4055.73 3054.05 L 4056.14 3054.26 L 4056.55 3054.67 L 4056.75 3055.28 L 4056.75 3056.71 M 4052.46 3052.5 L 4056.75 3052.5 M 4052.46 3052.5 L 4052.46 3049.84 M 4054.5 3052.5 L 4054.5 3050.86 M 4056.75 3052.5 L 4056.75 3049.84 M 4052.46 3048.49 L 4056.75 3048.49 M 4052.46 3048.49 L 4052.46 3046.65 L 4052.66 3046.04 L 4052.87 3045.83 L 4053.28 3045.63 L 4053.69 3045.63 L 4054.1 3045.83 L 4054.3 3046.04 L 4054.5 3046.65 L 4054.5 3048.49 M 4054.5 3047.06 L 4056.75 3045.63 M 4051.64 3039.7 L 4052.05 3040.1 L 4052.66 3040.51 L 4053.48 3040.92 L 4054.5 3041.13 L 4055.32 3041.13 L 4056.35 3040.92 L 4057.16 3040.51 L 4057.78 3040.1 L 4058.19 3039.7 M 4052.46 3036.91 L 4056.75 3036.91 M 4052.46 3038.35 L 4052.46 3035.48 M 4052.46 3034.13 L 4056.75 3034.13 M 4052.46 3031.27 L 4056.75 3031.27 M 4054.5 3034.13 L 4054.5 3031.27 M 4052.46 3028.49 L 4056.75 3028.49 M 4052.46 3029.92 L 4052.46 3027.05 M 4051.64 3025.7 L 4052.05 3025.3 L 4052.66 3024.89 L 4053.48 3024.48 L 4054.5 3024.27 L 4055.32 3024.27 L 4056.35 3024.48 L 4057.16 3024.89 L 4057.78 3025.3 L 4058.19 3025.7" fill="none"  stroke-width="0.6" c_note="note_name" /></g><g c_partid="part_pcbtext" c_etype="" c_origin="4064,3131.25" c_rotation="90" c_mirror="0" id="gge172" locked="0" layerid="3" c_shapetype="group" ><path c_fontsize="4.5" c_fontfamily="" c_text="B2" d="M 4059.46 3131.25 L 4063.75 3131.25 M 4059.46 3131.25 L 4059.46 3129.41 L 4059.66 3128.8 L 4059.87 3128.59 L 4060.28 3128.39 L 4060.69 3128.39 L 4061.1 3128.59 L 4061.3 3128.8 L 4061.5 3129.41 M 4061.5 3131.25 L 4061.5 3129.41 L 4061.71 3128.8 L 4061.91 3128.59 L 4062.32 3128.39 L 4062.94 3128.39 L 4063.35 3128.59 L 4063.55 3128.8 L 4063.75 3129.41 L 4063.75 3131.25 M 4060.48 3126.83 L 4060.28 3126.83 L 4059.87 3126.63 L 4059.66 3126.42 L 4059.46 3126.01 L 4059.46 3125.2 L 4059.66 3124.79 L 4059.87 3124.58 L 4060.28 3124.38 L 4060.69 3124.38 L 4061.1 3124.58 L 4061.71 3124.99 L 4063.75 3127.04 L 4063.75 3124.17" fill="none"  stroke-width="0.6" c_note="note_pre" /></g><path d="M 4204.5 3134 A 3 3 0 1 0 4204.5 3128" locked="0"  fill="none" stroke-width="1" c_helper_type="arc2" net="" layerid="3" id="gge52" /><path d="M 4160.2536 3078 A 10.5002 10.5002 0 0 1 4165.4043 3061.4666" locked="0"  fill="none" stroke-width="1" c_helper_type="arc2" net="" layerid="3" id="gge150" /><path d="M 4171.5976 3061.4669 A 10.4998 10.4998 0 0 1 4176.748 3078" locked="0"  fill="none" stroke-width="1" c_helper_type="arc2" net="" layerid="3" id="gge151" /><path d="M 4108.75 3081 A 43.25072 43.25072 0 1 0 4109.52 3081.01" locked="0"  fill="none" stroke-width="1" c_helper_type="arc2" net="" layerid="3" id="gge174" /><circle cx="4198.497" cy="3074.002" r="8.5" stroke-width="1" fill="none" layerid="3" id="gge34" locked="0"  /><polyline points="4058.5 3050 4259.5 3050 4259.5 3217 4058 3217 4058 3050.5" stroke-width="3"  stroke-linecap="round" fill="none" layerid="10" net="" id="gge186" locked="0" /></svg>